<svg xmlns="http://www.w3.org/2000/svg" viewBox="0 0 128 128"><defs><style>.cls-1{fill:none;stroke:#58d069;stroke-miterlimit:10;stroke-width:4px;}</style></defs><title>Asset 88</title><g id="Layer_2" data-name="Layer 2"><g id="Layer_1-2" data-name="Layer 1"><polyline class="cls-1" points="88 78 88 104 98 104"/><polyline class="cls-1" points="86 112 96 112 96 120 88 120 88 126 76 126 76 84"/><circle class="cls-1" cx="82" cy="46" r="8"/><circle class="cls-1" cx="82" cy="54" r="24"/><polyline class="cls-1" points="38 52 2 88 2 98 18 98 18 92 26 92 26 84 34 84 34 76 44 66"/><path class="cls-1" d="M52.16,62.69A24,24,0,1,1,77.89,24"/><path class="cls-1" d="M44,40A16,16,0,0,1,60,24"/><path class="cls-1" d="M78.09,14a26,26,0,1,1,3.45,32.3"/></g></g></svg>