<svg xmlns="http://www.w3.org/2000/svg" viewBox="0 0 116.07 116.07"><defs><style>.cls-1{fill:none;stroke:#02bab1;stroke-linejoin:round;stroke-width:4px;}</style></defs><title>Asset 96</title><g id="Layer_2" data-name="Layer 2"><g id="Layer_1-2" data-name="Layer 1"><path class="cls-1" d="M75.88,31.7,105.58,2l8.49,8.49-29.7,29.7a6,6,0,0,0,0,8.49,6,6,0,0,1,0,8.49L29.21,112.31a6,6,0,0,1-8.49,0l-17-17a6,6,0,0,1,0-8.49L58.91,31.7a6,6,0,0,1,8.49,0A6,6,0,0,0,75.88,31.7Z"/><line class="cls-1" x1="46.18" y1="44.43" x2="71.64" y2="69.88"/><line class="cls-1" x1="27.09" y1="63.52" x2="52.55" y2="88.97"/><line class="cls-1" x1="92.85" y1="14.73" x2="101.34" y2="23.21"/></g></g></svg>