<svg xmlns="http://www.w3.org/2000/svg" viewBox="0 0 362 26.99"><defs><style>.cls-1{fill:none;stroke-linecap:round;stroke-linejoin:round;}.cls-1,.cls-2{stroke:#02bab1;stroke-width:3px;}.cls-2{fill:#2dc58d;stroke-miterlimit:10;}</style></defs><title>Asset 168</title><g id="Layer_2" data-name="Layer 2"><g id="Main"><path class="cls-1" d="M360.5,14.93a10.56,10.56,0,0,1-21.12,0"/><path class="cls-1" d="M339.38,14.93a10.56,10.56,0,1,1-21.12,0"/><path class="cls-1" d="M318.26,14.93a10.56,10.56,0,0,1-21.12,0"/><path class="cls-1" d="M297.15,14.93a10.56,10.56,0,1,1-21.12,0"/><path class="cls-1" d="M276,14.93a10.56,10.56,0,0,1-21.12,0"/><path class="cls-1" d="M254.91,14.93a10.56,10.56,0,0,1-21.12,0"/><path class="cls-1" d="M233.79,14.93a10.56,10.56,0,1,1-21.12,0"/><path class="cls-1" d="M212.68,14.93a10.56,10.56,0,0,1-21.12,0"/><path class="cls-1" d="M191.56,14.93a10.56,10.56,0,1,1-21.12,0"/><path class="cls-1" d="M170.44,14.93a10.56,10.56,0,0,1-21.12,0"/><path class="cls-1" d="M149.32,14.93a10.56,10.56,0,1,1-21.12,0"/><path class="cls-1" d="M128.21,14.93a10.56,10.56,0,0,1-21.12,0"/><path class="cls-1" d="M107.09,14.93a10.56,10.56,0,0,1-21.12,0"/><path class="cls-1" d="M86,14.93a10.56,10.56,0,1,1-21.12,0"/><path class="cls-1" d="M64.85,14.93a10.56,10.56,0,0,1-21.12,0"/><path class="cls-1" d="M43.74,14.93a10.56,10.56,0,1,1-21.12,0"/><path class="cls-1" d="M22.62,14.93a10.56,10.56,0,0,1-21.12,0"/><path class="cls-2" d="M22.62,0V14.93a10.56,10.56,0,0,1-21.12,0V0"/><path class="cls-2" d="M64.85,0V14.93a10.56,10.56,0,0,1-21.12,0V0"/><path class="cls-2" d="M107.09,0V14.93a10.56,10.56,0,0,1-21.12,0V0"/><path class="cls-2" d="M149.32,0V14.93a10.56,10.56,0,1,1-21.12,0V0"/><path class="cls-2" d="M191.56,0V14.93a10.56,10.56,0,1,1-21.12,0V0"/><path class="cls-2" d="M233.79,0V14.93a10.56,10.56,0,1,1-21.12,0V0"/><path class="cls-2" d="M276,0V14.93a10.56,10.56,0,0,1-21.12,0V0"/><path class="cls-2" d="M318.26,0V14.93a10.56,10.56,0,0,1-21.12,0V0"/><path class="cls-2" d="M360.5,0V14.93a10.56,10.56,0,0,1-21.12,0V0"/></g></g></svg>