<svg xmlns="http://www.w3.org/2000/svg" viewBox="0 0 20 17.14"><defs><style>.cls-1{fill:#fff;fill-rule:evenodd;}</style></defs><title>Asset 167</title><g id="Layer_2" data-name="Layer 2"><g id="Main"><path class="cls-1" d="M17.64,2.71A4.3,4.3,0,0,0,19.45.32a8,8,0,0,1-2.61,1.05,4,4,0,0,0-3-1.37,4.22,4.22,0,0,0-4.1,4.33,4.52,4.52,0,0,0,.1,1A11.46,11.46,0,0,1,1.39.79,4.5,4.5,0,0,0,.84,3a4.4,4.4,0,0,0,1.83,3.6A4,4,0,0,1,.8,6v.05A4.28,4.28,0,0,0,4.1,10.33,3.82,3.82,0,0,1,3,10.48a3.86,3.86,0,0,1-.77-.08,4.14,4.14,0,0,0,3.83,3A8,8,0,0,1,1,15.26a7.74,7.74,0,0,1-1-.06,11.19,11.19,0,0,0,6.29,1.94C13.84,17.14,18,10.55,18,4.83c0-.19,0-.38,0-.56A8.59,8.59,0,0,0,20,2a7.86,7.86,0,0,1-2.36.68Zm0,0"/></g></g></svg>