<svg xmlns="http://www.w3.org/2000/svg" viewBox="0 0 104 128"><defs><style>.cls-1{fill:none;stroke:#02bab1;stroke-linejoin:round;stroke-width:4px;}</style></defs><title>Asset 100</title><g id="Layer_2" data-name="Layer 2"><g id="Layer_1-2" data-name="Layer 1"><path class="cls-1" d="M88,26h2A12,12,0,0,0,90,2"/><line class="cls-1" x1="16" y1="31" x2="62" y2="31"/><line class="cls-1" x1="16" y1="39" x2="62" y2="39"/><line class="cls-1" x1="16" y1="47" x2="62" y2="47"/><line class="cls-1" x1="16" y1="55" x2="62" y2="55"/><line class="cls-1" x1="16" y1="63" x2="62" y2="63"/><path class="cls-1" d="M70,114h8V14A12,12,0,0,1,90,2H14A12,12,0,0,0,2,14V114H42"/><polyline class="cls-1" points="64 104 64 126 56 118 48 126 48 104"/><circle class="cls-1" cx="56" cy="94" r="12"/><line class="cls-1" x1="16" y1="94" x2="37" y2="94"/><line class="cls-1" x1="86" y1="24" x2="86" y2="94"/></g></g></svg>