<svg xmlns="http://www.w3.org/2000/svg" viewBox="0 0 128 112"><defs><style>.cls-1{fill:none;stroke:#2dc58d;stroke-miterlimit:10;stroke-width:4px;}</style></defs><title>Asset 101</title><g id="Layer_2" data-name="Layer 2"><g id="Layer_1-2" data-name="Layer 1"><path class="cls-1" d="M24,66H16A14,14,0,0,1,2,52"/><line class="cls-1" x1="88" y1="66" x2="40" y2="66"/><path class="cls-1" d="M126,52a14,14,0,0,1-14,14h-8"/><line class="cls-1" x1="90" y1="106" x2="38" y2="106"/><line class="cls-1" x1="38" y1="18" x2="90" y2="18"/><rect class="cls-1" x="24" y="58" width="16" height="16"/><rect class="cls-1" x="88" y="58" width="16" height="16"/><line class="cls-1" x1="96" y1="74" x2="96" y2="64"/><line class="cls-1" x1="32" y1="74" x2="32" y2="64"/><line class="cls-1" x1="94" y1="82" x2="98" y2="82"/><line class="cls-1" x1="94" y1="90" x2="98" y2="90"/><line class="cls-1" x1="30" y1="82" x2="34" y2="82"/><line class="cls-1" x1="30" y1="90" x2="34" y2="90"/><line class="cls-1" x1="46" y1="10" x2="82" y2="10"/><polyline class="cls-1" points="102 74 102 110 90 110 90 74"/><polyline class="cls-1" points="38 74 38 110 26 110 26 74"/><polyline class="cls-1" points="26 58 26 14 38 14 38 58"/><polyline class="cls-1" points="90 58 90 14 102 14 102 58"/><path class="cls-1" d="M46,18V6a4,4,0,0,1,4-4H78a4,4,0,0,1,4,4V18"/><polyline class="cls-1" points="102 18 126 18 126 106 102 106"/><polyline class="cls-1" points="26 106 2 106 2 18 26 18"/></g></g></svg>