<svg xmlns="http://www.w3.org/2000/svg" viewBox="0 0 64 104"><defs><style>.cls-1{fill:none;stroke:#58d069;stroke-miterlimit:10;stroke-width:4px;}</style></defs><title>Asset 93</title><g id="Layer_2" data-name="Layer 2"><g id="Layer_1-2" data-name="Layer 1"><path class="cls-1" d="M52,14v8c0,4,10,12,10,16V98a4,4,0,0,1-4,4H6a4,4,0,0,1-4-4V38c0-4,10-12,10-16V14"/><rect class="cls-1" x="6" y="2" width="52" height="12" rx="2" ry="2"/><line class="cls-1" x1="12" y1="22" x2="52" y2="22"/><line class="cls-1" x1="16" y1="2" x2="16" y2="14"/><line class="cls-1" x1="24" y1="2" x2="24" y2="14"/><line class="cls-1" x1="40" y1="2" x2="40" y2="14"/><line class="cls-1" x1="32" y1="2" x2="32" y2="14"/><line class="cls-1" x1="48" y1="2" x2="48" y2="14"/><polygon class="cls-1" points="38 62 30 62 30 54 22 54 22 62 14 62 14 70 22 70 22 78 30 78 30 70 38 70 38 62"/><polyline class="cls-1" points="44 42 50 42 50 90 8 90"/><line class="cls-1" x1="2" y1="42" x2="40" y2="42"/></g></g></svg>