<svg xmlns="http://www.w3.org/2000/svg" viewBox="0 0 92 128"><defs><style>.cls-1{fill:none;stroke:#83da45;stroke-linejoin:round;stroke-width:4px;}</style></defs><title>Asset 98</title><g id="Layer_2" data-name="Layer 2"><g id="Layer_1-2" data-name="Layer 1"><path class="cls-1" d="M90,28V8a6,6,0,0,0-6-6H62A16,16,0,0,1,30,2H8A6,6,0,0,0,2,8V28"/><path class="cls-1" d="M2,32v88a6,6,0,0,0,6,6H30a16,16,0,0,1,32,0H84a6,6,0,0,0,6-6V32"/><line class="cls-1" x1="72" y1="30" x2="68" y2="30"/><line class="cls-1" x1="80" y1="30" x2="76" y2="30"/><line class="cls-1" x1="88" y1="30" x2="84" y2="30"/><line class="cls-1" x1="64" y1="30" x2="60" y2="30"/><line class="cls-1" x1="56" y1="30" x2="52" y2="30"/><line class="cls-1" x1="48" y1="30" x2="44" y2="30"/><line class="cls-1" x1="40" y1="30" x2="36" y2="30"/><line class="cls-1" x1="32" y1="30" x2="28" y2="30"/><line class="cls-1" x1="24" y1="30" x2="20" y2="30"/><line class="cls-1" x1="16" y1="30" x2="12" y2="30"/><line class="cls-1" x1="8" y1="30" x2="4" y2="30"/><polyline class="cls-1" points="42 72 42 54 34 54 46 42 58 54 50 54 50 72"/><line class="cls-1" x1="14" y1="82" x2="78" y2="82"/><line class="cls-1" x1="14" y1="90" x2="78" y2="90"/><line class="cls-1" x1="14" y1="98" x2="78" y2="98"/></g></g></svg>