<svg xmlns="http://www.w3.org/2000/svg" viewBox="0 0 128 88"><defs><style>.cls-1{fill:none;stroke:#83da45;stroke-linejoin:round;stroke-width:4px;}</style></defs><title>Asset 103</title><g id="Layer_2" data-name="Layer 2"><g id="Layer_1-2" data-name="Layer 1"><polygon class="cls-1" points="118 86 10 86 2 78 2 74 50 74 54 78 74 78 78 74 126 74 126 78 118 86"/><path class="cls-1" d="M118,68V8a6,6,0,0,0-6-6H16a6,6,0,0,0-6,6V68"/><line class="cls-1" x1="54" y1="62" x2="58" y2="62"/><line class="cls-1" x1="46" y1="62" x2="50" y2="62"/><line class="cls-1" x1="62" y1="62" x2="66" y2="62"/><line class="cls-1" x1="70" y1="62" x2="74" y2="62"/><line class="cls-1" x1="78" y1="62" x2="82" y2="62"/><polyline class="cls-1" points="42 62 18 62 18 10 110 10 110 62 86 62"/></g></g></svg>