<svg xmlns="http://www.w3.org/2000/svg" viewBox="0 0 112 128"><defs><style>.cls-1{fill:none;stroke:#aee521;stroke-miterlimit:10;stroke-width:4px;}</style></defs><title>Asset 99</title><g id="Layer_2" data-name="Layer 2"><g id="Layer_1-2" data-name="Layer 1"><circle class="cls-1" cx="56" cy="20" r="18"/><polyline class="cls-1" points="74 16 94 22 94 126 18 126 18 22 38 16"/><polyline class="cls-1" points="12 106 2 106 2 38 18 22"/><line class="cls-1" x1="2" y1="94" x2="12" y2="94"/><polyline class="cls-1" points="100 106 110 106 110 38 94 22"/><line class="cls-1" x1="110" y1="94" x2="100" y2="94"/><polyline class="cls-1" points="56 38 40 54 38 54 38 20"/><polyline class="cls-1" points="56 38 72 54 74 54 74 20"/><polyline class="cls-1" points="62 50 62 100 56 106 50 100 50 50"/><line class="cls-1" x1="56" y1="112" x2="56" y2="126"/><path class="cls-1" d="M66,47.8a14,14,0,0,1-20,0"/><line class="cls-1" x1="50" y1="14" x2="62" y2="14"/></g></g></svg>