<svg xmlns="http://www.w3.org/2000/svg" viewBox="0 0 24.22 27.25"><defs><style>.cls-1{fill:none;stroke:#effad3;stroke-miterlimit:10;stroke-width:2px;}</style></defs><title>Asset 164</title><g id="Layer_2" data-name="Layer 2"><g id="Main"><path class="cls-1" d="M23.22,12.11h0A11.11,11.11,0,0,0,1,12.11H1a11.38,11.38,0,0,0,4.83,9.17L12.11,26l6.28-4.72A11.35,11.35,0,0,0,23.22,12.11Z"/><path class="cls-1" d="M14.78,8.76A2.67,2.67,0,0,0,12.6,9.9l-.48.69-.48-.69a2.67,2.67,0,0,0-4.85,1.53c0,3.85,5.33,6.82,5.33,6.82s5.33-3,5.33-6.82A2.67,2.67,0,0,0,14.78,8.76Z"/></g></g></svg>