<svg xmlns="http://www.w3.org/2000/svg" viewBox="0 0 92 120"><defs><style>.cls-1{fill:none;stroke:#2dc58d;stroke-miterlimit:10;stroke-width:4px;}</style></defs><title>Asset 87</title><g id="Layer_2" data-name="Layer 2"><g id="Layer_1-2" data-name="Layer 1"><line class="cls-1" x1="12" y1="34" x2="80" y2="34"/><line class="cls-1" x1="12" y1="42" x2="80" y2="42"/><line class="cls-1" x1="12" y1="50" x2="80" y2="50"/><line class="cls-1" x1="12" y1="58" x2="40" y2="58"/><line class="cls-1" x1="14" y1="108" x2="14" y2="78"/><line class="cls-1" x1="22" y1="108" x2="22" y2="88"/><line class="cls-1" x1="30" y1="108" x2="30" y2="70"/><line class="cls-1" x1="38" y1="108" x2="38" y2="82"/><line class="cls-1" x1="46" y1="108" x2="46" y2="74"/><line class="cls-1" x1="54" y1="108" x2="54" y2="86"/><line class="cls-1" x1="62" y1="108" x2="62" y2="82"/><line class="cls-1" x1="70" y1="108" x2="70" y2="68"/><line class="cls-1" x1="78" y1="108" x2="78" y2="74"/><polyline class="cls-1" points="74 4 74 18 88 18"/><polygon class="cls-1" points="74 2 90 18 90 118 2 118 2 2 74 2"/><rect class="cls-1" x="14" y="14" width="48" height="12"/></g></g></svg>