<svg xmlns="http://www.w3.org/2000/svg" viewBox="0 0 85.92 85.17"><defs><style>.cls-1{fill:none;stroke:#83da45;stroke-linejoin:round;stroke-width:4px;}</style></defs><title>Asset 94</title><g id="Layer_2" data-name="Layer 2"><g id="Layer_1-2" data-name="Layer 1"><path class="cls-1" d="M34.51,42.23"/><path class="cls-1" d="M34.51,42.23c-4.24-4.24-8.49-5.66-14.14,0L9,53.55c-11.31,11.31-6.88,18.57-1.41,24h0c4.5,4.5,12.73,9.9,22.63,0l7.07-7.07C44.41,63.45,40,47.7,34.51,42.23Z"/><line class="cls-1" x1="7.64" y1="77.59" x2="3.39" y2="81.83"/><path class="cls-1" d="M43,33.75"/><path class="cls-1" d="M43,33.75c-4.24-4.24-5.66-8.49,0-14.14l9.9-9.9c11.31-11.31,20-8.3,25.46-2.83h0c4.5,4.5,9.9,12.73,0,22.63l-7.07,7.07C64.2,43.65,48.46,39.22,43,33.75Z"/><line class="cls-1" x1="78.35" y1="6.88" x2="82.59" y2="2.64"/><line class="cls-1" x1="20.36" y1="42.23" x2="42.99" y2="19.61"/><line class="cls-1" x1="34.51" y1="42.23" x2="42.99" y2="33.75"/></g></g></svg>