<svg xmlns="http://www.w3.org/2000/svg" viewBox="0 0 112 112"><defs><style>.cls-1{fill:none;stroke:#aee521;stroke-miterlimit:10;stroke-width:4px;}</style></defs><title>Asset 104</title><g id="Layer_2" data-name="Layer 2"><g id="Layer_1-2" data-name="Layer 1"><path class="cls-1" d="M8,66A6,6,0,0,1,8,54h96a6,6,0,0,1,0,12Z"/><line class="cls-1" y1="46" x2="112" y2="46"/><path class="cls-1" d="M2,38C2,25.85,2,2,56,2s54,23.85,54,36Z"/><path class="cls-1" d="M0,74c4,0,4,8,8,8s4-8,8-8,4,8,8,8,4-8,8-8,4,8,8,8,4-8,8-8,4,8,8,8,4-8,8-8,4,8,8,8,4-8,8-8,4,8,8,8,4-8,8-8,4,8,8,8,4-8,8-8"/><path class="cls-1" d="M2,90v10a10,10,0,0,0,10,10h88a10,10,0,0,0,10-10V90Z"/></g></g></svg>