<svg xmlns="http://www.w3.org/2000/svg" viewBox="0 0 50.83 24.71"><defs><style>.cls-1{fill:#fff;}</style></defs><title>Asset 174</title><g id="Layer_2" data-name="Layer 2"><g id="Main"><polygon class="cls-1" points="50.83 0.75 43.88 0.75 38.63 7.73 33.38 0.75 26.43 0.75 35.15 12.36 26.43 23.96 33.38 23.96 38.63 16.98 43.88 23.96 50.83 23.96 42.1 12.36 50.83 0.75"/><path class="cls-1" d="M22.55,5.37A12.62,12.62,0,0,0,12.36,0a12.36,12.36,0,0,0,0,24.71,12.65,12.65,0,0,0,10.19-5.37l5.25-7ZM12.36,19.11a6.75,6.75,0,1,1,6.75-6.75A6.75,6.75,0,0,1,12.36,19.11Z"/></g></g></svg>