<svg xmlns="http://www.w3.org/2000/svg" viewBox="0 0 468.19 107.77"><defs><style>.cls-1{fill:#0d0c0d;}</style></defs><title>Asset 1</title><g id="Layer_2" data-name="Layer 2"><g id="Capa_1" data-name="Capa 1"><path class="cls-1" d="M168.92,77c-.88,2.68-4.19,6.39-11.49,6.39-5.16,0-9-1.56-10.85-4.53-1.12-1.75-1.46-3.11-1.46-6.38V48.92h7V71.16a9.14,9.14,0,0,0,.59,4c.78,1.5,2.39,2.33,4.62,2.33,3,0,4.87-1.46,5.16-3.95a21.32,21.32,0,0,0,.1-3V48.92h6.91V71.69c0,3.23,0,3.86-.53,5.31"/><path class="cls-1" d="M188.58,63.53a3.53,3.53,0,0,0-1.9-.49,5.23,5.23,0,0,0-4,2.09V82.74h-6.52V66.1a22.47,22.47,0,0,0-.93-7.29l5.85-1.56a8.22,8.22,0,0,1,1,3.56c1.4-1.9,3.4-3.56,5.84-3.56a5.13,5.13,0,0,1,2.44.53Z"/><path class="cls-1" d="M209.22,83.44A5.77,5.77,0,0,1,207.27,81a9.31,9.31,0,0,1-6.57,2.39c-3.5,0-6.53-1.66-7.35-4.05a14.68,14.68,0,0,1-.54-5v-16l6.42-1.22v16a9.89,9.89,0,0,0,.54,4.09,2.63,2.63,0,0,0,2.29,1.17,4.8,4.8,0,0,0,4-2.39V58.56l6.23-1.32v19a7.22,7.22,0,0,0,1.51,4.54Z"/><path class="cls-1" d="M243.82,60.56l-2.72-4.14a7.86,7.86,0,0,1-5.16,2.14,13.58,13.58,0,0,1-3.06-.52,17.17,17.17,0,0,0-4.49-.65c-6.38,0-10.52,3.32-10.52,8.42,0,3.7,1.75,6,5.36,6.91-4.09,1.06-4.58,2.58-4.58,4.17a3.2,3.2,0,0,0,1.9,3.28,18,18,0,0,0,6,.78l2.77,0c2.59.05,4.59.73,4.59,3a3.06,3.06,0,0,1-1.61,2.54,7.93,7.93,0,0,1-4.09.81c-3,0-4.68-1.06-4.68-3.06a3.58,3.58,0,0,1,.29-1.6h-6a5,5,0,0,0-.58,2.54,5.81,5.81,0,0,0,2,4.42c2.23,2.1,5.89,2.68,9.44,2.68,3.9,0,7.64-.87,9.82-3.21a7.08,7.08,0,0,0,2-5.16,6.83,6.83,0,0,0-2.14-5.31c-1.75-1.62-3.74-2.19-7.54-2.24l-3.51,0c-.68,0-1.07-.24-1.07-.58,0-.67.92-1.25,2.58-2.05a7.6,7.6,0,0,0,1,0c5.32,0,9.2-3.12,9.2-7.38a6.09,6.09,0,0,0-1.46-4.11,14.61,14.61,0,0,0,1.7.14,6.2,6.2,0,0,0,4.58-1.84m-11.53,5.3c0,2.29-1.42,3.57-4,3.57-2.29,0-3.84-1-3.84-3.57,0-2.33,1.42-3.7,3.89-3.7s3.95,1.37,3.95,3.7"/><path class="cls-1" d="M262.22,83.44a5.74,5.74,0,0,1-2-2.45,9.32,9.32,0,0,1-6.57,2.39c-3.5,0-6.52-1.66-7.35-4.05a15,15,0,0,1-.53-5v-16l6.42-1.22v16a10,10,0,0,0,.54,4.09,2.63,2.63,0,0,0,2.29,1.17,4.82,4.82,0,0,0,4-2.39V58.56l6.23-1.32v19a7.27,7.27,0,0,0,1.51,4.54Z"/><path class="cls-1" d="M292.49,80c-2.18-1.65-2.38-2.82-2.33-5.54l.15-8.39a11.79,11.79,0,0,0-.44-4.47c-1-2.78-3.85-4.33-8-4.33A16.75,16.75,0,0,0,275,58.76a23.14,23.14,0,0,0-4,2l2.78,4.67c2.67-1.79,5.12-2.83,7.2-2.83,2.39,0,2.93.92,2.93,3.72v1c-.53,0-1,0-1.46,0-7.94,0-12,2.73-12,8.56,0,5,3,7.79,8.57,7.79a8.52,8.52,0,0,0,5-1.36A12.85,12.85,0,0,0,285.54,81a6.91,6.91,0,0,0,3.5,3Zm-8.71-8.17-.1,5.35a4.69,4.69,0,0,1-3.41,1.69,2.94,2.94,0,0,1-2.87-3.25c0-3,1.56-3.79,6.08-3.79Z"/><path class="cls-1" d="M308.8,83.14c-1.7,4.82-3,6.9-4.77,8.23a13.24,13.24,0,0,1-6,2.29l-2.23-4.28a14.58,14.58,0,0,0,4-1.66,7.66,7.66,0,0,0,1.85-2,14.92,14.92,0,0,0,1.41-2.93H301.4c-.78-2.33-2.1-6.23-2.33-7l-5.88-17.52,6.66-.78L304.18,72c.43,1.5,1.32,5.15,1.32,5.15s.49-2.77.77-4c.19-.82.58-2.29,1-3.47L311,57.82h6.85Z"/><path class="cls-1" d="M342,82.74H337l-5.5-18.53a87.13,87.13,0,0,1-2.19-8.82c0,.69-.72,5.31-1.51,9.25l-3.65,18.09h-4.77l7.11-33.48h5.36l5.84,19.33a52.13,52.13,0,0,1,1.61,7.68c.09-.63.86-5.79,1.7-10l3.45-17h4.59Z"/><path class="cls-1" d="M372.33,59.63a13,13,0,0,0-7.21-2,13.53,13.53,0,0,0-9.75,4c-3.2,3.22-5.1,8.72-5.1,13.77,0,5.31,2.67,7.75,6,7.75a9.17,9.17,0,0,0,8-4.35,5.54,5.54,0,0,0,1.8,4.73l3.66-2.78c-1.22-1.27-1.67-2.43-.88-6L371,65c.34-1.7,1-4.09,1.37-5.35m-5.06,2.24-2.63,12.32c-1.47,3-4.19,5.34-6.62,5.34-2,0-3.12-1.11-3.12-4.08,0-3.5,1-8.23,3.31-11,2-2.34,3.79-3.16,6.43-3.16a5.89,5.89,0,0,1,2.63.58"/><path class="cls-1" d="M389.41,61.63h-5l-2.92,13.78a14.44,14.44,0,0,0-.34,2.53c0,1.64.73,2.24,2.39,2.24a6.59,6.59,0,0,0,2.53-.51v2.79a11.45,11.45,0,0,1-4.78,1c-3.06,0-4.68-1.53-4.68-4.05a14.74,14.74,0,0,1,.35-3.45l3-14.36h-3l.63-3.32h3c.48-2,1.07-4.18,1.66-6l4.85-1.06a60.72,60.72,0,0,0-2,7.09h5.94Z"/><path class="cls-1" d="M409.56,75.55c-.58,2.82-.48,4.28.58,5.8l-3.65,2.38a5.84,5.84,0,0,1-1.66-4.83c-2.72,3.12-5.74,4.64-8.7,4.64-3.35,0-5.36-1.58-5.36-4.93a18.88,18.88,0,0,1,.39-3.65l3.5-16.34,4.58-.84L395.83,74a15.77,15.77,0,0,0-.44,3.21c0,1.89.68,2.63,2.19,2.63,2.3,0,5.6-2,7.83-5.54l3.32-15.58,4.57-.82Z"/><path class="cls-1" d="M432.14,62.6a3.87,3.87,0,0,0-1.64-.3c-2,0-4.25,1.67-6.49,5l-3.25,15.47h-4.44l3.52-16.45c.72-3.49.77-5.14.24-6.85l4.18-1.86a9.53,9.53,0,0,1,.3,5.36c2.28-3.21,5.29-5.2,7.58-5.2a5,5,0,0,1,2,.31Z"/><path class="cls-1" d="M454.24,59.63a13,13,0,0,0-7.2-2,13.47,13.47,0,0,0-9.74,4c-3.21,3.22-5.11,8.72-5.11,13.77,0,5.31,2.67,7.75,6,7.75a9.14,9.14,0,0,0,8-4.35A5.54,5.54,0,0,0,448,83.63l3.65-2.78c-1.21-1.27-1.65-2.43-.87-6L452.87,65c.34-1.7,1-4.09,1.37-5.35m-5.07,2.24-2.63,12.32c-1.46,3-4.18,5.34-6.62,5.34-2,0-3.11-1.11-3.11-4.08,0-3.5,1-8.23,3.31-11,2-2.34,3.81-3.16,6.42-3.16a5.82,5.82,0,0,1,2.63.58"/><path class="cls-1" d="M467.52,55.36,463,76.18a12.06,12.06,0,0,0-.39,2.53c0,.83.39,1.22,1.11,1.22a2.61,2.61,0,0,0,.88-.1l.24,2.88a8.35,8.35,0,0,1-3.27.59c-2.37,0-3.7-1.22-3.7-3.31a13.69,13.69,0,0,1,.39-2.73l4.54-21.51c.68-3.27.77-5.7.29-7.26l4.77-1.7c.54,1.76.24,5.59-.39,8.58"/><path class="cls-1" d="M7,4.68A79.29,79.29,0,0,0,.21,43c2.72,37.53,29.32,66.79,58.66,64.67,16.57-1.21,30.71-12.08,39.39-28.08,2-3.68,1.15-5.75-1.94-2.52C57.84,117.74,9.75,75.16,8,27.08a99.48,99.48,0,0,1,.9-22.4C9.42,1.5,8,2.39,7,4.68"/><path class="cls-1" d="M68.52,27c2,1.38,4,2.57,6.42,2.44a1,1,0,0,1,1,.44,1,1,0,0,1-.16,1.21,15.71,15.71,0,0,1-8.34,4.11c1,2.22,2.19,4.23,4.33,5.33.26.14.67.42.63.86a.93.93,0,0,1-.72,1,15.45,15.45,0,0,1-9.29-.63c-.19,2.45-.23,4.75,1.09,6.74a1,1,0,0,1,.13,1.1,1,1,0,0,1-1.15.5,15.44,15.44,0,0,1-7.7-5.18c-1.43,2-2.58,4-2.45,6.39a1,1,0,0,1-1.68.83,15.63,15.63,0,0,1-4.07-8.32c-2.21,1-4.23,2.19-5.32,4.32a1,1,0,0,1-1.89-.08A15.7,15.7,0,0,1,40,38.78c-2.45-.2-4.75-.23-6.78,1.1a1.09,1.09,0,0,1-1.09.13,1,1,0,0,1-.5-1.16,15.65,15.65,0,0,1,5.21-7.72c-2-1.41-4-2.57-6.42-2.44A1,1,0,0,1,29.57,27a15.39,15.39,0,0,1,8.33-4.07c-1-2.22-2.18-4.24-4.33-5.33a1,1,0,0,1-.63-.9,1,1,0,0,1,.73-1,15.77,15.77,0,0,1,9.28.63c.21-2.42.24-4.77-1.09-6.79a1,1,0,0,1,1-1.55A15.81,15.81,0,0,1,50.6,13.2c1.42-2,2.58-4,2.45-6.42a1,1,0,0,1,.42-1A1,1,0,0,1,54.73,6a15.41,15.41,0,0,1,4.06,8.33C61,13.27,63,12.11,64.13,10A1,1,0,0,1,65,9.33a1,1,0,0,1,1,.73,15.5,15.5,0,0,1-.65,9.27c2.45.24,4.76.26,6.78-1.1a1.08,1.08,0,0,1,1.09-.09,1.05,1.05,0,0,1,.5,1.16A15.84,15.84,0,0,1,68.52,27"/><path class="cls-1" d="M45.55,80.88c-4.24-2-4.86-4.86,1.57-4.8,37,.25,52.81-41.56,52.2-73.62-.05-2.75,1.13-3.72,2.25-.16a79.2,79.2,0,0,1,3.55,18.46c2.43,33.39-15.93,62.14-40.86,64a37,37,0,0,1-18.71-3.86"/></g></g></svg>