<svg xmlns="http://www.w3.org/2000/svg" viewBox="0 0 25.88 29.12"><defs><style>.cls-1{fill:none;stroke:#9ce16a;stroke-miterlimit:10;stroke-width:2px;}.cls-2{fill:#9ce16a;}</style></defs><title>Asset 177</title><g id="Layer_2" data-name="Layer 2"><g id="Menu"><path class="cls-1" d="M24.88,12.94h0A11.94,11.94,0,0,0,1,12.94H1a12.23,12.23,0,0,0,5.19,9.85l6.75,5.07,6.75-5.07A12.2,12.2,0,0,0,24.88,12.94Z"/><path class="cls-2" d="M12.79,19.19a1.58,1.58,0,0,0-.62.12,1.38,1.38,0,0,0-.77.79,1.64,1.64,0,0,0-.11.6,1.61,1.61,0,0,0,.11.59,1.4,1.4,0,0,0,.3.48,1.35,1.35,0,0,0,.47.31,1.76,1.76,0,0,0,1.24,0,1.35,1.35,0,0,0,.47-.31,1.4,1.4,0,0,0,.3-.48,1.61,1.61,0,0,0,.11-.59,1.64,1.64,0,0,0-.11-.6,1.38,1.38,0,0,0-.77-.79,1.58,1.58,0,0,0-.62-.12Z"/><path class="cls-1" d="M9.49,9.81c.71-4.07,6.28-4,6.86-.49.26,1.53-.63,2.56-1.74,3.49-1.89,1.59-1.86,2.82-1.86,2.82v1.9"/></g></g></svg>