<svg xmlns="http://www.w3.org/2000/svg" viewBox="0 0 128 120"><defs><style>.cls-1{fill:none;stroke:#02bab1;stroke-linejoin:round;stroke-width:4px;}</style></defs><title>Asset 90</title><g id="Layer_2" data-name="Layer 2"><g id="Layer_1-2" data-name="Layer 1"><path class="cls-1" d="M84,38h38a4,4,0,0,1,4,4v72a4,4,0,0,1-4,4H6a4,4,0,0,1-4-4V42a4,4,0,0,1,4-4H44"/><line class="cls-1" x1="40" y1="46" x2="88" y2="46"/><circle class="cls-1" cx="64" cy="16" r="6"/><path class="cls-1" d="M78,46V16a14,14,0,0,0-28,0V46"/><path class="cls-1" d="M44,73c0,7-3.93,13-10,13S24,80,24,73s2-11,10-11S44,66,44,73Z"/><path class="cls-1" d="M40,84l14,8v4c0,3.31-2,6-4,6H18c-2,0-4-2.69-4-6V92l14-8"/><line class="cls-1" x1="98" y1="70" x2="116" y2="70"/><line class="cls-1" x1="60" y1="70" x2="94" y2="70"/><line class="cls-1" x1="82" y1="62" x2="116" y2="62"/><line class="cls-1" x1="60" y1="62" x2="78" y2="62"/><rect class="cls-1" x="62" y="86" width="52" height="16"/><line class="cls-1" x1="70" y1="94" x2="74" y2="94"/><line class="cls-1" x1="78" y1="94" x2="82" y2="94"/><line class="cls-1" x1="86" y1="94" x2="90" y2="94"/><line class="cls-1" x1="94" y1="94" x2="98" y2="94"/><line class="cls-1" x1="102" y1="94" x2="106" y2="94"/></g></g></svg>