<svg xmlns="http://www.w3.org/2000/svg" viewBox="0 0 48 23.34"><defs><style>.cls-1{fill:#ccc;}</style></defs><title>Asset 2</title><g id="Layer_2" data-name="Layer 2"><g id="Layer_1-2" data-name="Layer 1"><polygon class="cls-1" points="48 0.71 41.44 0.71 36.48 7.3 31.52 0.71 24.96 0.71 33.2 11.67 24.96 22.63 31.52 22.63 36.48 16.04 41.44 22.63 48 22.63 39.76 11.67 48 0.71"/><path class="cls-1" d="M21.3,5.07A11.92,11.92,0,0,0,11.67,0a11.67,11.67,0,0,0,0,23.34,12,12,0,0,0,9.63-5.07l5-6.6ZM11.67,18A6.38,6.38,0,1,1,18,11.67,6.38,6.38,0,0,1,11.67,18Z"/></g></g></svg>