<svg xmlns="http://www.w3.org/2000/svg" viewBox="0 0 112 128"><defs><style>.cls-1{fill:none;}.cls-1,.cls-2{stroke:#aee521;stroke-miterlimit:10;stroke-width:4px;}.cls-2{fill:#fff;}</style></defs><title>Asset 4</title><g id="Layer_2" data-name="Layer 2"><g id="Main"><path class="cls-1" d="M14,56v60a10,10,0,0,0,10,10H88a10,10,0,0,0,10-10V56"/><path class="cls-1" d="M102,50V28A10,10,0,0,0,92,18H20A10,10,0,0,0,10,28V50"/><path class="cls-1" d="M14,114H8a6,6,0,0,1-6-6V80a6,6,0,0,1,6-6h6"/><path class="cls-1" d="M98,114h6a6,6,0,0,0,6-6V80a6,6,0,0,0-6-6H98"/><path class="cls-1" d="M76,18V10a8,8,0,0,0-8-8H44a8,8,0,0,0-8,8v8"/><path class="cls-1" d="M80,126V102a24,24,0,0,0-48,0v24"/><polyline class="cls-2" points="102 42 66 62 62 66 62 86 50 86 50 66 46 62 10 42"/><line class="cls-1" x1="62" y1="70" x2="50" y2="70"/><line class="cls-1" x1="35" y1="31.5" x2="77" y2="31.5"/><line class="cls-1" x1="68.83" y1="31.5" x2="68.83" y2="38.5"/></g></g></svg>