<svg xmlns="http://www.w3.org/2000/svg" viewBox="0 0 125 93.5"><defs><style>.cls-1,.cls-2,.cls-3{fill:none;stroke-width:3px;}.cls-1{stroke:#2dc58d;}.cls-1,.cls-2{stroke-miterlimit:10;}.cls-2,.cls-3{stroke:#83da45;}.cls-3{stroke-linejoin:round;}</style></defs><title>Asset 136</title><g id="Layer_2" data-name="Layer 2"><g id="Layer_1-2" data-name="Layer 1"><line class="cls-1" x1="9.5" y1="43.5" x2="9.5" y2="29.5"/><polyline class="cls-1" points="117.5 29.5 117.5 85.5 35.5 85.5"/><path class="cls-2" d="M27.5,13.5v10a6,6,0,0,1-12,0"/><path class="cls-2" d="M39.5,13.5v10a6,6,0,0,1-12,0"/><path class="cls-2" d="M39.5,13.5v10a6,6,0,0,1-12,0"/><path class="cls-2" d="M51.5,13.5v10a6,6,0,0,1-12,0"/><path class="cls-2" d="M51.5,13.5v10a6,6,0,0,1-12,0"/><path class="cls-2" d="M63.5,13.5v10a6,6,0,0,1-12,0"/><path class="cls-2" d="M63.5,13.5v10a6,6,0,0,1-12,0"/><path class="cls-2" d="M75.5,13.5v10a6,6,0,0,1-12,0"/><path class="cls-2" d="M75.5,13.5v10a6,6,0,0,1-12,0"/><path class="cls-2" d="M87.5,13.5v10a6,6,0,0,1-12,0"/><path class="cls-2" d="M87.5,13.5v10a6,6,0,0,1-12,0"/><path class="cls-2" d="M99.5,13.5v10a6,6,0,0,1-12,0"/><path class="cls-2" d="M99.5,13.5v10a6,6,0,0,1-12,0"/><path class="cls-2" d="M111.5,13.5v10a6,6,0,0,1-12,0"/><path class="cls-2" d="M111.5,13.5v10a6,6,0,0,1-12,0"/><polyline class="cls-1" points="105.5 85.5 105.5 45.5 81.5 45.5 81.5 85.5"/><line class="cls-1" x1="45.5" y1="45.5" x2="45.5" y2="73.5"/><line class="cls-1" x1="81.5" y1="65.5" x2="87.5" y2="65.5"/><polyline class="cls-1" points="27.5 45.5 65.5 45.5 65.5 73.5 39.5 73.5"/><path class="cls-2" d="M111.5,23.5a6,6,0,0,0,12,0V1.5H3.5v22a6,6,0,0,0,12,0v-10"/><line class="cls-2" x1="17.5" y1="93.5" x2="17.5" y2="69.5"/><path class="cls-3" d="M33.5,73.5c0,8.84-7.16,12-16,12s-16-3.16-16-12,16-28,16-28S33.5,64.66,33.5,73.5Z"/></g></g></svg>