<svg xmlns="http://www.w3.org/2000/svg" viewBox="0 0 123 127"><defs><style>.cls-1,.cls-2{fill:none;stroke-miterlimit:10;stroke-width:3px;}.cls-1{stroke:#83da45;}.cls-2{stroke:#2dc58d;}</style></defs><title>Asset 135</title><g id="Layer_2" data-name="Layer 2"><g id="Layer_1-2" data-name="Layer 1"><polyline class="cls-1" points="53.5 39.5 53.5 17.5 121.5 17.5 121.5 125.5 79.5 125.5"/><polyline class="cls-2" points="19.5 125.5 1.5 125.5 1.5 45.5 73.5 45.5 73.5 125.5 55.5 125.5"/><rect class="cls-2" x="25.5" y="109.5" width="24" height="16"/><rect class="cls-1" x="61.5" y="25.5" width="12" height="12"/><rect class="cls-1" x="81.5" y="25.5" width="12" height="12"/><rect class="cls-1" x="101.5" y="25.5" width="12" height="12"/><rect class="cls-1" x="81.5" y="45.5" width="12" height="12"/><rect class="cls-1" x="101.5" y="45.5" width="12" height="12"/><rect class="cls-1" x="81.5" y="65.5" width="12" height="12"/><rect class="cls-1" x="101.5" y="65.5" width="12" height="12"/><rect class="cls-1" x="81.5" y="85.5" width="12" height="12"/><rect class="cls-1" x="101.5" y="85.5" width="12" height="12"/><rect class="cls-1" x="81.5" y="105.5" width="12" height="12"/><rect class="cls-1" x="101.5" y="105.5" width="12" height="12"/><line class="cls-2" x1="9.5" y1="57.5" x2="24.77" y2="57.5"/><line class="cls-2" x1="29.86" y1="57.5" x2="45.14" y2="57.5"/><line class="cls-2" x1="50.23" y1="57.5" x2="65.5" y2="57.5"/><line class="cls-2" x1="9.5" y1="71.5" x2="24.77" y2="71.5"/><line class="cls-2" x1="29.86" y1="71.5" x2="45.14" y2="71.5"/><line class="cls-2" x1="50.23" y1="71.5" x2="65.5" y2="71.5"/><line class="cls-2" x1="9.5" y1="85.5" x2="24.77" y2="85.5"/><line class="cls-2" x1="29.86" y1="85.5" x2="45.14" y2="85.5"/><line class="cls-2" x1="50.23" y1="85.5" x2="65.5" y2="85.5"/><line class="cls-2" x1="9.5" y1="99.5" x2="24.77" y2="99.5"/><line class="cls-2" x1="29.86" y1="99.5" x2="45.14" y2="99.5"/><line class="cls-2" x1="50.23" y1="99.5" x2="65.5" y2="99.5"/><polyline class="cls-2" points="87.5 11.5 87.5 1.5 9.5 1.5 9.5 39.5"/></g></g></svg>