<svg xmlns="http://www.w3.org/2000/svg" viewBox="0 0 127 115"><defs><style>.cls-1,.cls-2{fill:none;stroke-linejoin:round;stroke-width:3px;}.cls-1{stroke:#83da45;}.cls-2{stroke:#2dc58d;}</style></defs><title>Asset 139</title><g id="Layer_2" data-name="Layer 2"><g id="Layer_1-2" data-name="Layer 1"><polyline class="cls-1" points="65.5 113.5 125.5 113.5 125.5 63.5"/><line class="cls-1" x1="65.5" y1="101.5" x2="115.5" y2="101.5"/><polyline class="cls-1" points="29.5 113.5 1.5 113.5 1.5 63.5"/><line class="cls-1" x1="11.5" y1="101.5" x2="29.5" y2="101.5"/><line class="cls-1" x1="97.5" y1="89.5" x2="115.5" y2="89.5"/><line class="cls-1" x1="11.5" y1="89.5" x2="29.5" y2="89.5"/><line class="cls-1" x1="11.5" y1="65.5" x2="115.5" y2="65.5"/><line class="cls-1" x1="97.5" y1="77.5" x2="115.5" y2="77.5"/><line class="cls-1" x1="11.5" y1="77.5" x2="29.5" y2="77.5"/><polyline class="cls-2" points="115.5 53.5 63.5 15.5 11.5 53.5"/><polyline class="cls-2" points="125.5 54.5 125.5 47.5 63.5 1.5 1.5 47.5 1.5 54.5"/><line class="cls-2" x1="63.5" y1="1.5" x2="63.5" y2="15.5"/><circle class="cls-2" cx="63.5" cy="37.5" r="8"/><polyline class="cls-2" points="91.5 13.5 91.5 5.5 103.5 5.5 103.5 31.5"/><rect class="cls-2" x="35.5" y="73.5" width="24" height="40"/><rect class="cls-2" x="67.5" y="73.5" width="24" height="18"/><line class="cls-2" x1="53.5" y1="91.5" x2="49.5" y2="91.5"/><line class="cls-2" x1="79.5" y1="73.5" x2="79.5" y2="91.5"/></g></g></svg>