<svg xmlns="http://www.w3.org/2000/svg" xmlns:xlink="http://www.w3.org/1999/xlink" viewBox="0 0 557.44 579.93"><defs><style>.cls-1{fill:#d6f290;}.cls-2{fill:url(#New_Gradient_Swatch_1);}.cls-3{fill:#ccf1ef;stroke:#02bab1;stroke-width:5px;}.cls-10,.cls-3,.cls-8{stroke-miterlimit:10;}.cls-4{fill:#02bab1;}.cls-5{fill:#58d069;}.cls-10,.cls-6{fill:#aee521;}.cls-10,.cls-6,.cls-7,.cls-8,.cls-9{stroke:#2dc58d;}.cls-6,.cls-7,.cls-9{stroke-linecap:round;stroke-linejoin:round;stroke-width:2px;}.cls-7{fill:none;}.cls-8,.cls-9{fill:#83da45;}</style><linearGradient id="New_Gradient_Swatch_1" x1="-10569.08" y1="389.24" x2="-10066.61" y2="389.24" gradientTransform="translate(-10011.65 717.93) rotate(180)" gradientUnits="userSpaceOnUse"><stop offset="0" stop-color="#00a99d"/><stop offset="1" stop-color="#aee521"/></linearGradient></defs><title>earth</title><g id="Layer_2" data-name="Layer 2"><g id="Main"><path class="cls-1" d="M58.36,358.18C42.07,221.29,139.84,97.11,276.72,80.82s261.07,81.47,277.36,218.36S472.62,560.25,335.72,576.55,74.65,495.08,58.36,358.18Z"/><path class="cls-2" d="M306.54,77.43h2.15l0,3.24c-4.23,0-8.53,0-12.77.22l-.14-3.23C299.33,77.51,303,77.43,306.54,77.43Zm15.07.45c4.28.26,8.62.63,12.89,1.11l-.36,3.22c-4.21-.47-8.49-.84-12.72-1.1Zm-38.77.66.3,3.22c-2.08.2-4.18.42-6.23.66s-4.33.55-6.45.85l-.46-3.2c2.14-.31,4.34-.6,6.53-.86S280.74,78.74,282.84,78.54Zm64.47,2.23c4.25.7,8.53,1.52,12.73,2.45l-.69,3.16c-4.14-.91-8.37-1.72-12.56-2.41Zm-90.06,1.49.63,3.18c-4.15.82-8.35,1.76-12.46,2.79l-.79-3.14C248.8,84,253,83.09,257.25,82.26Zm115.37,4.06c4.15,1.14,8.32,2.4,12.4,3.75l-1,3.07c-4-1.33-8.14-2.58-12.24-3.7ZM232.18,88.57l1,3.1c-4.05,1.24-8.12,2.61-12.1,4.06l-1.11-3C223.95,91.22,228.07,89.83,232.18,88.57Zm165,5.88c4,1.56,8,3.25,11.94,5l-1.33,3C404,100.68,400,99,396,97.47Zm-189.33,3,1.27,3c-3.9,1.66-7.81,3.44-11.62,5.29l-1.42-2.91C200,100.92,203.93,99.11,207.88,97.43Zm212.93,7.65c3.82,2,7.64,4,11.36,6.21l-1.63,2.8c-3.67-2.13-7.44-4.19-11.21-6.13Zm-236.16,3.67,1.57,2.83c-3.7,2-7.4,4.22-11,6.46l-1.71-2.75C177.16,113,180.91,110.83,184.66,108.75Zm258.54,9.31c3.6,2.34,7.19,4.81,10.66,7.33l-1.9,2.62c-3.43-2.49-7-4.93-10.52-7.24ZM162.74,122.4l1.85,2.66c-3.47,2.42-6.93,5-10.27,7.56l-2-2.56C155.72,127.43,159.22,124.85,162.74,122.4Zm301.38,10.87c3.34,2.7,6.66,5.52,9.85,8.38l-2.16,2.41c-3.15-2.83-6.42-5.61-9.72-8.28Zm-321.79,5,2.11,2.45c-3.2,2.76-6.38,5.65-9.45,8.58l-2.24-2.34C135.86,144,139.08,141,142.33,138.25Zm341,12.28c3,3,6.05,6.17,8.94,9.34l-2.4,2.18c-2.85-3.13-5.81-6.24-8.82-9.22Zm-359.73,5.58,2.35,2.22c-2.91,3.08-5.77,6.28-8.52,9.5l-2.46-2.1C117.79,162.46,120.7,159.22,123.64,156.11Zm377.11,13.55c2.72,3.32,5.39,6.75,7.93,10.21l-2.61,1.92c-2.51-3.41-5.14-6.8-7.83-10.07Zm-393.88,6.14,2.57,2c-2.58,3.36-5.1,6.83-7.51,10.33l-2.67-1.84C101.71,182.71,104.27,179.19,106.88,175.79Zm409.2,14.66c2.36,3.58,4.66,7.27,6.83,11l-2.79,1.64c-2.14-3.65-4.41-7.28-6.74-10.82ZM92.2,197.09l2.76,1.7c-2.22,3.61-4.38,7.33-6.42,11l-2.84-1.55C87.76,204.52,90,200.75,92.2,197.09Zm437,15.62c2,3.81,3.89,7.72,5.67,11.63l-2.95,1.34c-1.76-3.85-3.64-7.71-5.6-11.47ZM79.78,219.79l2.92,1.41c-1.84,3.83-3.61,7.75-5.25,11.65l-3-1.25C76.13,227.64,77.92,223.67,79.78,219.79Zm460.11,16.44c1.58,4,3.07,8.08,4.44,12.15l-3.07,1c-1.35-4-2.82-8.05-4.38-12ZM69.76,243.66l3,1.1c-1.44,4-2.79,8.08-4,12.14l-3.1-.94C66.93,251.85,68.3,247.71,69.76,243.66Zm478.37,17.09c1.15,4.13,2.22,8.35,3.16,12.54l-3.16.71c-.93-4.14-2-8.3-3.12-12.38Zm-485.88,7.7,3.14.78c-1,4.12-1.94,8.32-2.74,12.49l-3.18-.61C60.28,276.89,61.22,272.63,62.25,268.45ZM553.8,286c.73,4.23,1.35,8.53,1.86,12.8l-3.21.39c-.51-4.21-1.12-8.47-1.84-12.64ZM57.36,293.87l3.21.45c-.58,4.2-1.07,8.46-1.43,12.69l-3.23-.28C56.28,302.45,56.76,298.12,57.36,293.87Zm499.53,17.79c.29,4.29.48,8.64.56,12.93l-3.24.06c-.07-4.23-.26-8.53-.55-12.76Zm-501.76,8,3.24.11c-.1,2.86-.15,5.76-.15,8.63q0,2.07,0,4.14l-3.24.05q0-2.1,0-4.2C55,325.47,55,322.53,55.12,319.63Zm499,17.77,3.24.11c-.15,4.29-.41,8.64-.77,12.91l-3.23-.28C553.7,345.93,554,341.65,554.1,337.41ZM58.78,345.28c.29,4.22.69,8.5,1.19,12.72l.05.42-3.21.39-.05-.43c-.51-4.27-.91-8.6-1.2-12.88Zm493.13,17.56,3.21.44c-.59,4.25-1.3,8.55-2.1,12.76l-3.18-.61C550.63,371.28,551.33,367,551.91,362.84Zm-490,8.21c.72,4.18,1.56,8.4,2.49,12.52l-3.16.71c-.94-4.18-1.79-8.45-2.52-12.68ZM547.1,387.93l3.14.77c-1,4.18-2.18,8.38-3.42,12.5l-3.1-.94C545,396.21,546.09,392.06,547.1,387.93ZM67.49,396c1.14,4.08,2.41,8.18,3.76,12.2l-3.07,1c-1.37-4.07-2.65-8.23-3.81-12.36Zm472.22,16.46,3,1.09c-1.45,4-3,8.1-4.69,12.07l-3-1.25C536.72,420.41,538.28,416.4,539.72,412.41ZM75.64,420.14c1.56,3.94,3.24,7.89,5,11.74l-2.94,1.35c-1.79-3.91-3.49-7.91-5.07-11.9ZM529.84,436l2.92,1.4c-1.86,3.87-3.85,7.74-5.91,11.52L524,447.35C526,443.62,528,439.8,529.84,436ZM86.26,443.35c2,3.75,4,7.5,6.18,11.14l-2.79,1.64c-2.18-3.69-4.28-7.49-6.27-11.29Zm431.34,15,2.76,1.69c-2.25,3.66-4.62,7.31-7.06,10.85l-2.67-1.83C513,465.61,515.38,462,517.6,458.4ZM99.2,465.31c2.33,3.53,4.79,7,7.3,10.45l-2.61,1.92c-2.55-3.45-5-7-7.4-10.59Zm403.94,14.13,2.57,2c-2.61,3.41-5.34,6.8-8.12,10.06l-2.47-2.1C497.86,486.15,500.56,482.81,503.14,479.44Zm-388.8,6.39c2.69,3.27,5.49,6.52,8.34,9.65l-2.39,2.18c-2.89-3.17-5.73-6.46-8.45-9.78ZM486.6,498.89l2.36,2.22c-2.95,3.13-6,6.21-9.11,9.18l-2.24-2.34C480.67,505,483.69,502,486.6,498.89ZM131.51,504.7c3,3,6.13,5.92,9.29,8.75l-2.16,2.41c-3.2-2.87-6.37-5.85-9.41-8.87Zm336.66,11.84,2.12,2.45c-3.25,2.81-6.61,5.56-10,8.19l-2-2.56C461.64,522,465,519.31,468.17,516.53Zm-317.64,5.18c3.3,2.66,6.71,5.27,10.14,7.76l-1.9,2.62c-3.47-2.52-6.93-5.16-10.27-7.86ZM448,532.19l1.85,2.65c-3.52,2.46-7.14,4.85-10.78,7.12l-1.71-2.75C441,537,444.57,534.61,448,532.19ZM171.2,536.7c3.55,2.31,7.22,4.56,10.89,6.68l-1.62,2.8c-3.72-2.15-7.43-4.43-11-6.77Zm255.21,9,1.57,2.83c-3.74,2.08-7.6,4.08-11.45,6l-1.42-2.91C418.92,549.71,422.72,547.73,426.41,545.68ZM193.31,549.5c3.78,1.94,7.65,3.8,11.52,5.53l-1.33,3c-3.92-1.76-7.84-3.65-11.67-5.61Zm210.19,7.37,1.27,3c-3.95,1.68-8,3.28-12,4.76l-1.11-3C395.61,560.11,399.6,558.53,403.5,556.87ZM216.61,560c4,1.54,8,3,12,4.32l-1,3.07c-4.08-1.35-8.18-2.82-12.19-4.38Zm162.91,5.67,1,3.09c-4.1,1.26-8.29,2.44-12.45,3.49l-.79-3.14C371.35,568,375.48,566.89,379.53,565.64ZM240.89,568c4.09,1.12,8.27,2.15,12.42,3.05l-.69,3.16c-4.2-.92-8.44-2-12.58-3.09Zm113.89,3.91.63,3.18c-4.2.84-8.49,1.57-12.75,2.19l-.47-3.2C346.4,573.44,350.63,572.71,354.78,571.89Zm-88.9,1.55c4.18.69,8.44,1.27,12.65,1.74l-.36,3.22c-4.26-.48-8.57-1.07-12.81-1.77Zm63.64,2.14.31,3.22c-4.28.41-8.62.71-12.91.89l-.14-3.23C321,576.28,325.29,576,329.52,575.58Zm-38.27.68c4.23.25,8.53.39,12.76.43l0,3.24c-4.29,0-8.64-.18-12.93-.43Z"/><path class="cls-3" d="M530,301.28C544.67,424.33,456.78,536,333.74,550.6S99.07,477.36,84.42,354.31,157.65,119.64,280.71,105,515.38,178.23,530,301.28Z"/><path class="cls-4" d="M257.36,548.6l13.84-51.1c1.53-5.66,2.19-14,5.16-19.05,3.41-5.86,11.73-11.4,16.55-16.07s11.9-9.47,15.48-15.1c3.48-5.46,6.82-15.78,6.06-22.31-.39-3.4.14-10.9-1.75-13.8-.86-1.31-3.75-2.46-5.08-3.27L279.91,391A396.49,396.49,0,0,0,238.6,368.6c-6.46-3-14-.27-21,.62-1.73.22-7.54,0-8.77,1.23-2.11,2.16-2.82,10.83-3.57,13.73s-1.06,6.81-2.5,9.42c-1.85,3.34-6.08,6.5-8.65,9.24-3.09,3.31-8,7.07-10.28,11-1.69,3-1.45,2.19.09,6.15,2.56,6.59,4.37,15.51,8.72,21.06,5.92,7.54,14.93,12.85,21.4,19.93,4,4.34,4.22,10.32,5.61,16.1l8.7,36.39,3.73,15.63c.39,1.65.5,5,1.53,6.39,2,2.78,9,4.95,11.89,6.55Z"/><path class="cls-4" d="M140.58,189.57c11.89-5,24.45-12.42,37-15.3,8.4-1.93,17.53-2.22,26.09-3.31,1.88-.24,4.57-1.12,6.09-.27,2.63,1.47,5,6.78,6.87,9.25l-28.4,19c-7.32,4.89-11.76,12.29-17.13,19.23,13.93,3.4,27.59,8.46,42,7.76L268,223.28,258,246.66c-2.5,5.87-7.12,6.51-13,9.2-9.17,4.23-18.77,8-27.67,12.76-4.25,2.27-5.81,5.65-8.64,9.77-8.68,12.66-20,25.39-26.21,39.47-2.64,6-4.83,16.15-9.58,20.46-2.69,2.45-7.86,3.77-11.11,5.33-2.87,1.38-11,3.57-13,6.24-1.32,1.78-.58,7.14-.64,9.4-.11,4.31-1.61,10.7-.38,14.8.84,2.82,4.14,5.6,6,7.95l9,11.07c-5.44.69-8.15,1.42-13-.79-6-2.75-13-5-18.61-8.5-3.57-2.23-4.66-5.3-6.84-9.17-3.4-6-6.89-12-10.19-18.12-5-9.27-8.68-19.35-13.95-28.48-4.74-8.23-12.17-15.43-18.2-22.8"/><path class="cls-4" d="M268.85,204.73l-14.26-21.65c-4-6-10.61-9.8-16.26-14.18-1.5-1.16-5.36-3.28-5.42-4.83-.09-2.53,7.84-10.13,9.3-12,5.21-6.74,5.59-7.44,13.58-9.2L287,136c7.52-1.66,8.43-2.32,14.91,1.64,3.74,2.28,17.56,8.22,18,12,.3,2.5-4.34,8.72-5.41,10.85-2.36,4.75-4.5,9.72-7.13,14.32-3.46,6.06-10.6,9.53-16.21,13.62Z"/><path class="cls-4" d="M473.09,183.83c-3.1,4.58-6.15,11.73-10.34,15.26-3,2.51-8.73,2.11-12.73,2.61-4.86.62-11.68,2.82-16.56,2.1-5.39-.8-11.76-5.17-16.74-7.36-4.18-1.84-6.81-3.08-11.27-3.33-6.71-.38-14.46-2-21.13-1.21-4.4.51-8.26,3.69-12.17,6-4.12,2.39-9.17,3.89-10.7,8.14-2.14,5.94.15,13.89-2.44,19.63-1.48,3.28-5.76,6.56-8.16,9.23l-15.2,17c-3.28,3.66-5,4-3.92,8.22.81,3.21,2.78,6.51,4.08,9.55,1,2.37,1.91,6.73,3.69,8.63s10,4.94,12.68,4.56c4.48-.62,11.24-7.08,15-9.48,3.15-2,6.28-4.77,9.87-5.33,6.51-1,14.65.72,21.2,1,7.46.37,15.67-.18,23,1.13,4.42.79,6,3.69,9.3,7.16l14,14.77-29.11,11.33c-4.08,1.59-4.05,2.27-7.49.11-3-1.89-8-8.5-11.45-8.84-2.26-.23-6.81,2.64-8.89,3.44L369,305.38c-6,2.32-16.94,4.23-21,9.17-3.29,4-5.22,10.47-7.54,15.13-1.75,3.51-5.36,8.28-6.08,12.2-.66,3.62,1.08,9,1.54,12.56.51,4.05.12,10.19,1.77,13.94,1.34,3.05,5.33,6.2,7.51,8.72,3.78,4.36,7.4,9.78,11.77,13.58,5.8,5,18.09-1.13,25.61-1,3.82.07,4.77,1.46,8.05,4.09,3,2.4,7.94,5,10.14,8.2,1.95,2.81,2.64,8,3.69,11.18l6.16,18.67c2.34,7.09,4.17,12.61,8.18,18.8l10.87,16.77c1.08,1.66,4.64,9.56,6.56,10.12,1.74.51,8.47-4.46,10.16-5.37,3.18-1.71,11.67-4.33,13.76-7.4,1-1.53.44-5.25.46-7.19q.11-9.1.22-18.2c.1-8.4-1.33-18.51.33-26.78,2-9.75,7.64-19.9,11.2-29.18,5.71-14.86,2.31-33.29,11.16-46.41,4.24-6.28,9.07-19,16.84-20.29,5.46-.92,12.16-.38,17.39-2.2,3.17-1.1,5.7-4,8.33-6.18l10.7-9"/><path class="cls-4" d="M257.36,548.6l13.84-51.1c1.53-5.66,2.19-14,5.16-19.05,3.41-5.86,11.73-11.4,16.55-16.07s11.9-9.47,15.48-15.1c3.48-5.46,6.82-15.78,6.06-22.31-.39-3.4.14-10.9-1.75-13.8-.86-1.31-3.75-2.46-5.08-3.27L279.91,391A396.49,396.49,0,0,0,238.6,368.6c-6.46-3-14-.27-21,.62-1.73.22-7.54,0-8.77,1.23-2.11,2.16-2.82,10.83-3.57,13.73s-1.06,6.81-2.5,9.42c-1.85,3.34-6.08,6.5-8.65,9.24-3.09,3.31-8,7.07-10.28,11-1.69,3-1.45,2.19.09,6.15,2.56,6.59,4.37,15.51,8.72,21.06,5.92,7.54,14.93,12.85,21.4,19.93,4,4.34,4.22,10.32,5.61,16.1l8.7,36.39,3.73,15.63c.39,1.65.5,5,1.53,6.39,2,2.78,9,4.95,11.89,6.55Z"/><path class="cls-4" d="M83.23,305.24C82,314.68,95.55,319.82,100.3,328c5.26,9.13,8.91,19.21,13.95,28.48,3.31,6.09,6.8,12.08,10.19,18.12,2.18,3.87,3.27,6.94,6.84,9.17,5.6,3.51,12.6,5.76,18.61,8.5,4.84,2.21,7.55,1.48,13,.79l-9-11.07c-1.9-2.34-5.21-5.13-6-7.95-1.22-4.1.27-10.49.38-14.8.06-2.27-.69-7.62.64-9.4,2-2.67,10.12-4.86,13-6.24,3.25-1.56,8.42-2.89,11.11-5.33,4.74-4.31,6.94-14.47,9.58-20.46,6.21-14.08,17.53-26.82,26.21-39.47,2.82-4.12,4.39-7.5,8.64-9.77,8.9-4.76,18.5-8.53,27.67-12.76,5.84-2.69,10.46-3.33,13-9.2L268,223.28,213,225.93c-14.38.69-28-4.36-42-7.76,5.37-6.94,9.82-14.34,17.13-19.23l28.4-19c-1.84-2.48-4.24-7.78-6.87-9.25-1.52-.85-4.21,0-6.09.27-8.56,1.08-17.69,1.37-26.09,3.31-12.54,2.88-26.83,6.07-35.86,15.3C141.71,189.56,91.69,238.48,83.23,305.24Z"/><path class="cls-4" d="M268.85,204.73l-14.26-21.65c-4-6-10.61-9.8-16.26-14.18-1.5-1.16-5.36-3.28-5.42-4.83-.09-2.53,7.84-10.13,9.3-12,5.21-6.74,5.59-7.44,13.58-9.2L287,136c7.52-1.66,8.43-2.32,14.91,1.64,3.74,2.28,17.56,8.22,18,12,.3,2.5-4.34,8.72-5.41,10.85-2.36,4.75-4.5,9.72-7.13,14.32-3.46,6.06-10.6,9.53-16.21,13.62Z"/><path class="cls-4" d="M535.66,299.37c1,4.55-6,6-9.57,8.94-2.63,2.2-5.16,5.07-8.33,6.18-5.23,1.82-11.93,1.29-17.39,2.2-7.77,1.31-12.61,14-16.84,20.29-8.85,13.12-5.46,31.55-11.16,46.41-3.56,9.29-9.24,19.43-11.2,29.18-1.66,8.27-.23,18.37-.33,26.78q-.11,9.1-.22,18.2c0,1.94.58,5.65-.46,7.19-2.09,3.06-10.58,5.69-13.76,7.4-1.69.91-8.42,5.88-10.16,5.37-1.91-.56-5.48-8.45-6.56-10.12L418.8,450.62c-4-6.18-5.84-11.71-8.18-18.8l-6.16-18.67c-1-3.18-1.74-8.37-3.69-11.18-2.2-3.17-7.15-5.79-10.14-8.2-3.28-2.63-4.23-4-8.05-4.09-7.52-.14-19.81,6-25.61,1-4.36-3.8-8-9.21-11.77-13.58-2.18-2.51-6.17-5.66-7.51-8.72-1.64-3.75-1.25-9.89-1.77-13.94-.46-3.61-2.2-8.94-1.54-12.56.72-3.92,4.33-8.69,6.08-12.2,2.32-4.66,4.25-11.1,7.54-15.13,4-4.94,15-6.85,21-9.17l18.72-7.24c2.08-.8,6.64-3.67,8.89-3.44,3.42.34,8.44,7,11.45,8.84,3.44,2.16,3.41,1.48,7.49-.11l29.11-11.33-14-14.77c-3.3-3.47-4.88-6.37-9.3-7.16-7.36-1.31-15.56-.76-23-1.13-6.56-.32-14.69-2.06-21.2-1-3.59.56-6.71,3.34-9.87,5.33-3.81,2.4-10.56,8.86-15,9.48-2.7.37-11-2.72-12.68-4.56s-2.68-6.26-3.69-8.63c-1.3-3-3.27-6.34-4.08-9.55-1.07-4.25.63-4.56,3.92-8.22l15.2-17c2.39-2.67,6.67-5.95,8.16-9.23,2.59-5.74.3-13.69,2.44-19.63,1.53-4.25,6.58-5.75,10.7-8.14,3.91-2.27,7.77-5.45,12.17-6,6.67-.78,14.42.82,21.13,1.21,4.46.25,7.09,1.49,11.27,3.33,5,2.19,11.35,6.56,16.74,7.36,4.88.72,11.7-1.48,16.56-2.1,4-.51,9.76-.11,12.73-2.61,4.19-3.53,6.68-10.12,9.78-14.69C472.53,184.4,519.21,221.82,535.66,299.37Z"/><path class="cls-5" d="M250,548.36l12.87-50.73c1.43-5.62,1.95-13.83,4.8-18.92,3.28-5.85,11.42-11.45,16.11-16.14s11.61-9.55,15.07-15.16c3.35-5.45,6.49-15.71,5.64-22.14-.44-3.35,0-10.78-1.95-13.61-.87-1.28-3.75-2.37-5.07-3.15L269.79,392.2a392,392,0,0,0-41.19-21.47c-6.43-2.83-13.87,0-20.76.94-1.71.24-7.45.1-8.65,1.36-2.06,2.16-2.62,10.75-3.32,13.63s-.94,6.75-2.33,9.35c-1.78,3.33-5.9,6.52-8.4,9.27-3,3.32-7.83,7.11-10,11-1.63,3-1.4,2.19.18,6.07,2.64,6.47,4.56,15.27,8.95,20.68,6,7.36,15,12.46,21.47,19.36,4,4.23,4.34,10.13,5.79,15.83l9.17,35.83,3.94,15.39c.41,1.62.57,4.9,1.61,6.3,2,2.72,8.95,4.75,11.85,6.29Z"/><path class="cls-5" d="M75.1,304.06c-1,9.35,12.41,14.22,17.23,22.27,5.35,8.94,9.11,18.85,14.23,27.93,3.36,6,6.91,11.84,10.36,17.75,2.21,3.79,3.34,6.81,6.9,9,5.59,3.38,12.55,5.49,18.53,8.11,4.82,2.11,7.49,1.34,12.86.58l-9.06-10.8c-1.92-2.29-5.23-5-6.1-7.76-1.27-4,.1-10.37.15-14.63,0-2.24-.8-7.52.48-9.31,1.91-2.67,9.93-5,12.75-6.37,3.19-1.6,8.28-3,10.9-5.45,4.62-4.33,6.63-14.41,9.14-20.37,5.92-14,16.91-26.78,25.29-39.43,2.73-4.11,4.22-7.48,8.38-9.79,8.73-4.85,18.15-8.72,27.15-13,5.73-2.75,10.29-3.46,12.66-9.3l9.47-23.27-54.25,3.48c-14.2.91-27.78-3.87-41.6-7,5.2-6.95,9.48-14.33,16.63-19.28L205,178.11c-1.86-2.42-4.31-7.62-6.94-9-1.51-.82-4.16.1-6,.37-8.44,1.21-17.46,1.64-25.74,3.68-12.35,3-31.76,5-40.53,14.26C125.76,187.37,82.41,237.94,75.1,304.06Z"/><path class="cls-5" d="M263.48,198.55,249,177.38c-4-5.88-10.64-9.52-16.29-13.76-1.5-1.12-5.35-3.15-5.43-4.69-.13-2.5,7.59-10.14,9-12,5-6.74,5.4-7.44,13.28-9.31l30.77-7.29c7.41-1.76,8.3-2.42,14.76,1.38,3.73,2.2,17.49,7.85,18,11.57.34,2.47-4.16,8.69-5.17,10.81-2.26,4.73-4.3,9.67-6.82,14.27-3.32,6-10.33,9.58-15.81,13.72Z"/><path class="cls-5" d="M538.42,290.06c1,4.48-5.84,6-9.32,9-2.57,2.22-5,5.1-8.14,6.24-5.14,1.88-11.77,1.46-17.16,2.45-7.66,1.41-12.24,14-16.33,20.32-8.55,13.11-4.9,31.27-10.3,46.05-3.38,9.23-8.83,19.35-10.61,29-1.51,8.2.06,18.17.09,26.47l.07,18c0,1.91.67,5.58-.34,7.11-2,3.06-10.37,5.79-13.49,7.53-1.66.93-8.23,5.94-10,5.47-1.9-.52-5.55-8.27-6.64-9.9l-11-16.4c-4.06-6-6-11.48-8.38-18.45l-6.38-18.36c-1.09-3.13-1.85-8.25-3.82-11-2.22-3.1-7.16-5.61-10.15-7.94-3.28-2.55-4.24-3.91-8-3.92-7.44,0-19.49,6.27-25.3,1.38-4.37-3.68-8-9-11.85-13.24-2.19-2.45-6.19-5.5-7.56-8.5-1.68-3.68-1.39-9.75-2-13.75-.51-3.56-2.31-8.8-1.72-12.39.64-3.89,4.14-8.66,5.82-12.15,2.22-4.65,4-11,7.22-15.08,3.91-5,14.71-7,20.59-9.4l18.39-7.45c2-.83,6.5-3.73,8.74-3.54,3.39.28,8.46,6.74,11.46,8.56,3.43,2.08,3.39,1.41,7.4-.23l28.6-11.66-14.1-14.38c-3.32-3.38-4.93-6.22-9.31-6.93-7.29-1.18-15.4-.51-22.77-.75-6.49-.22-14.56-1.81-21-.7-3.54.61-6.58,3.41-9.67,5.43-3.72,2.43-10.3,8.92-14.72,9.61-2.66.41-10.87-2.52-12.61-4.31s-2.75-6.15-3.78-8.47c-1.33-3-3.33-6.21-4.18-9.37-1.13-4.19.55-4.52,3.74-8.19l14.76-17c2.33-2.68,6.5-6,7.92-9.25,2.47-5.71.08-13.53,2.1-19.44,1.45-4.22,6.41-5.78,10.45-8.21,3.83-2.31,7.59-5.51,11.93-6.09,6.58-.87,14.27.59,20.91.86,4.41.18,7,1.36,11.2,3.11,5,2.08,11.33,6.31,16.66,7,4.83.64,11.54-1.65,16.33-2.33,3.94-.56,9.65-.26,12.55-2.78,4.08-3.55,6.44-10.1,9.44-14.68C474.22,177.41,521,213.67,538.42,290.06Z"/><path class="cls-6" d="M301.23,27.68a20.64,20.64,0,0,1-.93-6.92,20.72,20.72,0,0,1,41.4,1.93,20.64,20.64,0,0,1-1.57,6.8,31.08,31.08,0,1,1-38.89-1.82Z"/><path class="cls-6" d="M301.23,27.68a20.64,20.64,0,0,1-.93-6.92,20.72,20.72,0,0,1,41.4,1.93,20.64,20.64,0,0,1-1.57,6.8,31.08,31.08,0,1,1-38.89-1.82Z"/><line class="cls-7" x1="319.55" y1="52.77" x2="317.13" y2="104.52"/><polygon class="cls-8" points="498.18 102.87 443.91 141.72 468.58 162.69 498.18 102.87"/><polygon class="cls-9" points="498.18 102.87 443.91 141.72 468.58 162.69 498.18 102.87"/><line class="cls-9" x1="456.24" y1="152.21" x2="451.58" y2="157.69"/><polygon class="cls-8" points="456.03 85.09 415.21 125.03 438.8 139.54 456.03 85.09"/><polygon class="cls-9" points="456.03 85.09 415.21 125.03 438.8 139.54 456.03 85.09"/><line class="cls-9" x1="427.01" y1="132.28" x2="423.78" y2="137.53"/><path class="cls-6" d="M52.64,223.48a13.6,13.6,0,1,1,10.88-23.12,20.4,20.4,0,1,1-10.88,23.12Z"/><path class="cls-6" d="M52.64,223.48a13.6,13.6,0,1,1,10.88-23.12,20.4,20.4,0,1,1-10.88,23.12Z"/><line class="cls-7" x1="72.45" y1="218.68" x2="103.21" y2="233.16"/><circle class="cls-10" cx="148.63" cy="130.51" r="14.39" transform="translate(-48.94 120.87) rotate(-38.49)"/><line class="cls-6" x1="166.54" y1="153.04" x2="148.63" y2="130.51"/><circle class="cls-6" cx="148.63" cy="130.51" r="14.39" transform="translate(-48.94 120.87) rotate(-38.49)"/><polygon class="cls-8" points="2.05 291.46 73.08 318.74 77.56 282.11 2.05 291.46"/><polygon class="cls-9" points="2.05 291.46 73.08 318.74 77.56 282.11 2.05 291.46"/><line class="cls-9" x1="75.32" y1="300.43" x2="83.46" y2="301.42"/><circle class="cls-10" cx="161.67" cy="108.7" r="19.43" transform="translate(-33.13 106.64) rotate(-33.31)"/><line class="cls-6" x1="183" y1="141.17" x2="161.67" y2="108.7"/><circle class="cls-6" cx="161.67" cy="108.7" r="19.43" transform="translate(-33.13 106.64) rotate(-33.31)"/></g></g></svg>