<?xml version="1.0" encoding="utf-8"?>
<!-- Generator: Adobe Illustrator 21.0.0, SVG Export Plug-In . SVG Version: 6.00 Build 0)  -->
<svg version="1.1" id="Layer_1" xmlns="http://www.w3.org/2000/svg" xmlns:xlink="http://www.w3.org/1999/xlink" x="0px" y="0px"
	 viewBox="0 0 71.1 71.1" style="enable-background:new 0 0 71.1 71.1;" xml:space="preserve">
<style type="text/css">
	.st0{fill:#FFFFFF;stroke:#02BAB1;stroke-width:2;stroke-miterlimit:10;}
	.st1{fill:none;stroke:#02BAB1;stroke-width:2;stroke-miterlimit:10;}
	.st2{fill:#02BAB1;}
</style>
<title>Asset 185</title>
<g id="Layer_2">
	<g id="Menu">
		<polyline class="st0" points="62.3,25.5 70.1,25.5 70.1,70.1 1,70.1 1,25.5 8.8,25.5 		"/>
		<polyline class="st0" points="59,36.7 59,9.9 50.1,1 12.1,1 12.1,36.7 		"/>
		<polyline class="st1" points="70.1,70.1 35.6,43.4 1,70.1 		"/>
		<line class="st1" x1="1" y1="25.5" x2="23.3" y2="47.8"/>
		<line class="st1" x1="70.1" y1="25.5" x2="47.8" y2="47.8"/>
		<polyline class="st1" points="59,9.9 50.1,9.9 50.1,1 		"/>
		<rect x="18.8" y="1" class="st1" width="24.5" height="11.1"/>
		<line class="st1" x1="22.2" y1="5.5" x2="24.4" y2="5.5"/>
		<line class="st1" x1="26.6" y1="5.5" x2="28.9" y2="5.5"/>
		<line class="st1" x1="31.1" y1="5.5" x2="33.3" y2="5.5"/>
		<line class="st1" x1="17.7" y1="16.6" x2="53.4" y2="16.6"/>
		<line class="st1" x1="17.7" y1="21.1" x2="53.4" y2="21.1"/>
		<line class="st1" x1="17.7" y1="25.5" x2="53.4" y2="25.5"/>
		<line class="st1" x1="17.7" y1="30" x2="53.4" y2="30"/>
		<line class="st1" x1="17.7" y1="34.4" x2="53.4" y2="34.4"/>
	</g>
</g>
<g>
	<polygon class="st2" points="42.9,57 40.6,57 38.8,59.3 37.1,57 34.8,57 37.7,60.9 34.8,64.7 37.1,64.7 38.8,62.4 40.6,64.7 
		42.9,64.7 40,60.9 	"/>
	<path class="st2" d="M33.5,58.5c-0.8-1.1-2-1.8-3.4-1.8c-2.3,0-4.1,1.8-4.1,4.1s1.8,4.1,4.1,4.1c1.4,0,2.6-0.7,3.4-1.8l1.7-2.3
		L33.5,58.5z M30.1,63.1c-1.2,0-2.2-1-2.2-2.2s1-2.2,2.2-2.2s2.2,1,2.2,2.2C32.4,62.1,31.3,63.1,30.1,63.1z"/>
</g>
</svg>
