<svg xmlns="http://www.w3.org/2000/svg" viewBox="0 0 128 110"><defs><style>.cls-1{fill:none;stroke:#aee521;stroke-miterlimit:10;stroke-width:4px;}</style></defs><title>Asset 3</title><g id="Layer_2" data-name="Layer 2"><g id="Main"><circle class="cls-1" cx="26" cy="26" r="14"/><polyline class="cls-1" points="96 34 96 12 118 4"/><path class="cls-1" d="M96,12C78,12,42,2,26,2A24,24,0,0,0,2,26c0,6.15,4.48,14.63,6.12,16L24,96s2,12,12,12,12-5.37,12-12c0,0-8,0-8-32V50"/><path class="cls-1" d="M26,50c16,0,52-10,70-10l22,8"/><rect class="cls-1" x="40" y="58" width="8" height="12"/><line class="cls-1" x1="28" y1="58" x2="24" y2="58"/><line class="cls-1" x1="38" y1="98" x2="34" y2="98"/><path class="cls-1" d="M82,68H70a10,10,0,0,0,0,20h34a10,10,0,0,1,0,20"/><path class="cls-1" d="M94,60V76H86a4,4,0,0,1-4-4V64a4,4,0,0,1,4-4Z"/><line class="cls-1" x1="94" y1="64" x2="104" y2="64"/><line class="cls-1" x1="94" y1="72" x2="104" y2="72"/><line class="cls-1" x1="104" y1="108" x2="36" y2="108"/><line class="cls-1" x1="46" y1="22" x2="50" y2="22"/><line class="cls-1" x1="54" y1="22" x2="58" y2="22"/><line class="cls-1" x1="62" y1="22" x2="66" y2="22"/><line class="cls-1" x1="46" y1="30" x2="50" y2="30"/><line class="cls-1" x1="54" y1="30" x2="58" y2="30"/><line class="cls-1" x1="62" y1="30" x2="66" y2="30"/><path class="cls-1" d="M118,38V4a2,2,0,0,1,2-2h4a2,2,0,0,1,2,2V48a2,2,0,0,1-2,2h-4a2,2,0,0,1-2-2V42"/></g></g></svg>