<svg xmlns="http://www.w3.org/2000/svg" xmlns:xlink="http://www.w3.org/1999/xlink" viewBox="0 0 281.67 148.52"><defs><style>.cls-1,.cls-2,.cls-3{fill:none;stroke-miterlimit:10;stroke-width:4px;}.cls-1{stroke:#fff;}.cls-2{stroke:url(#linear-gradient);}.cls-3{stroke:url(#linear-gradient-2);}</style><linearGradient id="linear-gradient" x1="251.74" y1="148.52" x2="251.74" y2="60.95" gradientUnits="userSpaceOnUse"><stop offset="0" stop-color="#fff" stop-opacity="0"/><stop offset="1" stop-color="#fff"/></linearGradient><linearGradient id="linear-gradient-2" x1="29.94" y1="148.52" x2="29.94" y2="60.95" xlink:href="#linear-gradient"/></defs><title>Asset 161</title><g id="Layer_2" data-name="Layer 2"><g id="Layer_1-2" data-name="Layer 1"><path class="cls-1" d="M24,42.64,12.16,30.78V29.09A5.08,5.08,0,0,1,17.24,24h1.69L35.86,40.94c3.39,3.39,3.39,8.47,3.39,8.47V63H20.62V59.57s0-3.39-3.39-6.77L5.39,40.94C2,37.56,2,34.17,2,34.17V7.08a5.08,5.08,0,0,1,10.16,0V20.62"/><path class="cls-1" d="M257.66,42.64l11.85-11.85V29.09A5.08,5.08,0,0,0,264.44,24h-1.69L245.81,40.94c-3.39,3.39-3.39,8.47-3.39,8.47V63h18.62V59.57s0-3.39,3.39-6.77l11.85-11.85c3.39-3.39,3.39-6.77,3.39-6.77V7.08a5.08,5.08,0,1,0-10.16,0V20.62"/><path class="cls-2" d="M239,148.52V64.65A1.69,1.69,0,0,1,240.73,63h22a1.69,1.69,0,0,1,1.69,1.69v83.87"/><path class="cls-3" d="M17.24,148.52V64.65A1.69,1.69,0,0,1,18.93,63h22a1.69,1.69,0,0,1,1.69,1.69v83.87"/></g></g></svg>