<svg xmlns="http://www.w3.org/2000/svg" viewBox="0 0 59 219.5"><defs><style>.cls-1{fill:none;stroke:#fff;stroke-linejoin:round;stroke-width:3px;}</style></defs><title>Asset 25</title><g id="Layer_2" data-name="Layer 2"><g id="Layer_1-2" data-name="Layer 1"><path class="cls-1" d="M49.5,89.5V82.25l8-26.67V18.74a5.69,5.69,0,0,0-5-5.76,5.5,5.5,0,0,0-6,5.48V13.14a5.69,5.69,0,0,0-5-5.76,5.5,5.5,0,0,0-6,5.48V7.38A5.76,5.76,0,0,0,32.07,2,6,6,0,0,0,23.5,7.5v5.35a5.5,5.5,0,0,0-6-5.48,5.69,5.69,0,0,0-5,5.76V49.5"/><line class="cls-1" x1="23.5" y1="13.5" x2="23.5" y2="41.5"/><line class="cls-1" x1="35.5" y1="13.5" x2="35.5" y2="41.5"/><line class="cls-1" x1="46.5" y1="19.5" x2="46.5" y2="41.5"/><path class="cls-1" d="M7.31,32.5A5.8,5.8,0,0,0,1.5,38.11v16.8l5.6,11.2,8.4,11.2V89.5"/><line class="cls-1" x1="24" y1="102" x2="18" y2="102"/><path class="cls-1" d="M8.5,219.5V92.78C8.5,91.24,10.14,90,12,90H52.25a3,3,0,0,1,3.25,2.78V219.5"/></g></g></svg>