<svg xmlns="http://www.w3.org/2000/svg" viewBox="0 0 116.35 132.43"><defs><style>.cls-1{fill:none;stroke:#666;stroke-miterlimit:10;stroke-width:3px;}</style></defs><title>Asset 159</title><g id="Layer_2" data-name="Layer 2"><g id="Layer_1-2" data-name="Layer 1"><polyline class="cls-1" points="44.02 132.43 44.02 47.87 23.61 37.5 2.17 16.86 8.66 10.73 25.82 27.24 43.03 31.43 73.18 31.56 90.43 27.53 107.74 11.17 114.17 17.36 92.53 37.81 72.02 47.99 72.02 132.43"/><line class="cls-1" x1="58.02" y1="132.43" x2="58.02" y2="88.43"/><line class="cls-1" x1="72.02" y1="74.38" x2="44.02" y2="74.47"/><circle class="cls-1" cx="58.82" cy="11.77" r="10.27" transform="matrix(0, -1, 1, 0, 46.77, 70.53)"/><path class="cls-1" d="M51.49,45.67a3.35,3.35,0,0,1-1-2.41,3.62,3.62,0,0,1,3.62-3.62A4.25,4.25,0,0,1,57,41.08l.48.48.48-.48a4.25,4.25,0,0,1,2.9-1.45,3.62,3.62,0,0,1,3.62,3.62,3.81,3.81,0,0,1-1.45,2.9L57.52,51.7Z"/></g></g></svg>