<svg xmlns="http://www.w3.org/2000/svg" viewBox="0 0 113.39 113.39"><defs><style>.cls-1{fill:#4c4c4c;}.cls-2{fill:#fff;}</style></defs><title>logo-enanas</title><g id="Layer_2" data-name="Layer 2"><g id="Menu"><rect id="_Rectangle_" data-name="&lt;Rectangle&gt;" class="cls-1" width="113.39" height="113.39"/><g id="_Group_" data-name="&lt;Group&gt;"><path id="_Compound_Path_" data-name="&lt;Compound Path&gt;" class="cls-2" d="M48.29,50.26H38.66V41.18h3.42V35.75H38.66V30.5h4.66V48.9h5V37.84l.22.4.7,1.13Q55.8,49.9,56.06,53.84l0,.24L56,55.71h5.19v0h.08V53.84h0A37.08,37.08,0,0,1,62.53,47h7.81a36.68,36.68,0,0,1,1.28,6.79l.1,1.89h5.17l-.1-2.1q-.36-7.8-7.85-27.28l-.48-1.24H64.31l-.48,1.26q-1.41,3.72-2.56,7V25.07H56.08V40.5q-.84-1.4-2.54-4.13-4.73-7.55-5-9.6l-.24-1.7H33.47V55.71H48.29ZM66.41,34.32q1.34,3.86,2.4,7.26H64.05Q65.09,38.2,66.41,34.32ZM79.82,77q-.88-5.73-8.15-8.72a14.4,14.4,0,0,1-2.94-1.49A2.61,2.61,0,0,1,67.6,65a2.23,2.23,0,0,1,.52-1.61,2.4,2.4,0,0,1,1.22-.9,5.12,5.12,0,0,1,1.28-.17A2.39,2.39,0,0,1,73,63.6l.72,1.55,4.91-1.63-.84-2A7.15,7.15,0,0,0,75,58.12a7.85,7.85,0,0,0-4.35-1.24,9.85,9.85,0,0,0-2.66.38,7.38,7.38,0,0,0-4.09,2.94,7.74,7.74,0,0,0,1.52,10.72,17.56,17.56,0,0,0,4.36,2.39q4.51,1.87,4.93,4.51a5.13,5.13,0,0,1-.3,2.54,3.45,3.45,0,0,1-2.48,2.31,6.31,6.31,0,0,1-1.58.21A4,4,0,0,1,66.3,80.1l-.57-1.49a174.7,174.7,0,0,0-6.65-20.09l-.48-1.24H54.46L54,58.54q-2.56,6.76-4.27,12.11h0l1.68-6.85V57.28H46.19V72.72q-.84-1.4-2.54-4.13-4.74-7.55-5-9.6l-.24-1.7h-5v31h5.19V70.45l.7,1.13q6.59,10.53,6.85,14.47l0,.51-.06,1.73h5.24V86.84l0-.83a36.78,36.78,0,0,1,1.26-6.8h6.6l-1.52-5.45H54.2q1-3.38,2.36-7.26,1.11,3.21,2,6.09s2,7.13,2.1,7.38l.75,2a9.57,9.57,0,0,0,3,4.28,9,9,0,0,0,5.89,2.08,10.88,10.88,0,0,0,2.81-.38,8.39,8.39,0,0,0,5.53-4.38A10.33,10.33,0,0,0,79.82,77Z"/></g></g></g></svg>