<?xml version="1.0" encoding="utf-8"?>
<!-- Generator: Adobe Illustrator 22.1.0, SVG Export Plug-In . SVG Version: 6.00 Build 0)  -->
<svg version="1.1" id="Layer_1" xmlns="http://www.w3.org/2000/svg" xmlns:xlink="http://www.w3.org/1999/xlink" x="0px" y="0px"
	 viewBox="0 0 382.1 275.6" style="enable-background:new 0 0 382.1 275.6;" xml:space="preserve">
<style type="text/css">
	.st0{fill:#4C4C4C;}
</style>
<title>logo-ferrando</title>
<g id="Layer_2_1_">
	<g id="Layer_1-2">
		<path class="st0" d="M381.1,167.3c-13.2,0-26.5,0-39.7,0c-0.8-0.1-1.7-0.3-2.4-0.7c-27.3-12.5-54.6-24.9-81.9-37.4
			c-1.3-0.4-2.1-1.6-1.9-2.9c0.1-8.3,0-16.5,0.1-24.8c0.2-1.2-0.6-2.4-1.8-2.8c-19.2-7.8-38.4-15.6-57.7-23.3c-1-0.4-2.1-0.4-3.1,0
			c-19.2,7.7-38.4,15.6-57.7,23.3c-1.2,0.3-2,1.5-1.8,2.8c0.1,8.3,0,16.5,0.1,24.8c0.2,1.2-0.6,2.4-1.8,2.8
			c-28.7,12.5-57.3,25.1-85.9,37.6c-0.8,0.4-1.6,0.6-2.5,0.6c-4.9,0.1-9.8,0-14.7-0.4l95.1-41.8c-2-1.4-3.6-2.7-5.3-3.7
			c-0.5-0.3-1.5,0.2-2.1,0.5c-32.6,14.5-65.2,29.1-97.8,43.6c-2.8,1.4-5.9,2-9,1.9c-2.7-0.2-5.4,0-8.7,0c0.9-0.6,1.4-0.8,1.8-1
			c36.9-16.7,73.8-33.3,110.7-49.8c1.7-0.5,2.8-2.2,2.6-4c-0.1-7.6,0.1-15.3,0-22.9c-0.2-1.3,0.6-2.6,1.9-2.9
			c25-10,50.1-20,75.1-30.1c1-0.4,2.1-0.4,3.1,0c25.1,10,50.3,20.1,75.4,30.2c1.1,0.3,1.9,1.4,1.7,2.6c0,7.8,0.1,15.6,0,23.4
			c-0.2,1.7,0.8,3.3,2.5,3.8c34.7,16.4,69.5,32.9,104.2,49.4l1.9,0.9L381.1,167.3z M191.2,63.6l-66.1,26.6c1,0.6,2,1.3,2.9,2
			c1.6,1.5,3.2,1.5,5.3,0.6c5-2.3,10.2-4.2,15.4-6.3c13.5-5.5,27-11,40.5-16.5c0.9-0.3,1.6-1,1.9-1.9
			C191.3,66.6,191.3,65.1,191.2,63.6z M197.8,63.7c-0.9,5.2-0.9,5.4,3.4,7.1l53.5,21.7c3.6,1.4,5.7,0.8,8.3-2.6L197.8,63.7z
			 M121.2,95.5c0,5.7,0,11.1,0,16.5c0,4.3,1,5.7,5.5,7.4c0-5.2-0.4-10.3,0.1-15.4c0.4-4.3-1.2-6.7-4.8-8.3
			C121.9,95.7,121.9,95.7,121.2,95.5z"/>
		<path class="st0" d="M192.9,95.9l58.3,68.3h-114L192.9,95.9z M221.4,149.7l-27.8-31.9l-25.7,31.9H221.4z M229.1,159
			c-2-3.1-4.2-4.4-7.9-4.4c-18.9,0.2-37.7,0.2-56.6,0c-3.9,0-6.4,2.5-9.4,4.3L229.1,159z M149.7,156.3c5.1-2.6,10-5,13.6-9.6
			c8.4-10.7,17.1-21,26-31.3c2.4-2.8,1.9-5.6,1.4-8.7L149.7,156.3z"/>
		<path class="st0" d="M294.9,232.7v-38.6l-3.5-0.4v-4.5H333v43.5H294.9z M310,194.5c-0.1,0.3-0.3,0.4-0.3,0.6c0,8.3,0,16.7-0.1,25
			c0,1.5,0.8,1.6,1.9,1.6c5.1,0,10.3-0.1,15.4,0c1.8,0,2.2-0.7,2.2-2.3c-0.1-5.1,0-10.3,0-15.4c0-3.1,0-6.2,0-9.4L310,194.5z
			 M319.4,227.1c2.7,0,5.5,0.1,8.2-0.1c0.5,0,1.1-0.7,1.6-1.1c-0.5-0.5-1.1-1.3-1.6-1.3c-5.5-0.1-10.9-0.1-16.4,0
			c-0.5,0-1,0.8-1.5,1.2c0.5,0.4,1,1.2,1.5,1.2C314,227.1,316.7,227.1,319.4,227.1L319.4,227.1z"/>
		<path class="st0" d="M345.6,189.2h36.5v43.6h-36.5V189.2z M376.8,193.7c-5.9,0-11.5,0.1-17.1-0.1c-2.2-0.1-2.6,0.7-2.6,2.7
			c0.1,7.5,0,15,0,22.5c0,0.8,0.1,1.6,0.2,2.5h19.5V193.7z M376.7,224.6h-19.5l0.1,2.3h19.4L376.7,224.6z"/>
		<path class="st0" d="M171.8,217.2h-15.2v15.5h-11.5v-43.5h35.6v27.1c-0.2,0.1-0.3,0.3-0.4,0.3c-3.9,0.5-3.9,0.5-3.9,4.7
			c0,2,0,4,0,6.1c0.1,0.3,0.1,0.6,0.3,0.9l4,0.2v4.3h-8.9L171.8,217.2z M176.2,212.3c0-5.7-0.1-11.2,0-16.8c0-1.8-0.7-2.2-2.3-2.2
			c-4.9,0.1-9.8,0-14.7,0c-0.7,0-1.3,0.1-2,0.2v18.7L176.2,212.3z"/>
		<path class="st0" d="M96.8,189.2h35.5v27.4l-4.1,0.3v11.3l4.1,0.2v4.3h-8.8v-15.5h-15.2v15.5H96.8V189.2z M108.9,212.3h18.7v-18.7
			h-18.7L108.9,212.3z"/>
		<path class="st0" d="M228,189.2v43.5h-3.9v-9.6H204v9.7h-10.7c0-2.7,0-5.4,0-8c0-4.8,0.1-9.5-0.1-14.3c-0.2-2.2,0.8-4.3,2.5-5.6
			c4.2-3.7,8.2-7.6,12.8-11.9h-14.6v-3.8H228z M224.1,218.2v-25c-1.2,0.6-2.3,1.2-3.3,2c-4.8,4.6-9.3,9.4-14.3,13.7
			c-3.3,2.8-2.4,5.9-2.4,9.3L224.1,218.2z"/>
		<path class="st0" d="M83.4,221v3H66.5c-1.6,0-3.3,0.1-4.9,0c-1.8-0.1-2.5,0.6-1.8,2.6H84v6.2H48.3v-43.5h35.1v4.3H59.5v11.7h12.2
			v4.4H59.6V221H83.4z"/>
		<path class="st0" d="M271,232.7c0-8.8-0.1-17.4,0-25.9c0.2-1.6-0.7-3.2-2.3-3.8c-5.8-2.8-11.4-5.7-17.1-8.6
			c-0.6-0.3-1.2-0.5-2.2-0.9v39.1h-8.7v-43.6c4.3,0.3,8.6-0.9,12.9,1.3c4.6,2.4,9.4,4.5,14.1,6.8c0.7,0.3,1.4,0.6,2.4,1.1v-9h8.5
			v43.5L271,232.7z"/>
		<path class="st0" d="M11.2,194.1v11.8h12.4v4.5H11.5v22.3H0v-43.4h35.6v4.8L11.2,194.1z"/>
		<path class="st0" d="M96.8,70l-3,5l-11.3-6.6l2.3,10l-9.9,2.6l11.2,6.8l-3,5L60.2,79l11-2.8c1.7-0.4,3.5-1,5.2-1.3s1.9-1,1.5-2.6
			c-1.4-5.2-2.7-10.4-4.1-16.2L96.8,70z"/>
		<path class="st0" d="M311.3,93.2c-7.4,0.1-13.5-5.8-13.6-13.2c0-0.1,0-0.1,0-0.2c0-7.5,6-13.6,13.5-13.6c7.5,0,13.6,6,13.6,13.5
			c0.1,7.4-5.8,13.4-13.2,13.5C311.6,93.2,311.4,93.2,311.3,93.2z M311.6,71.9c-4.4-0.1-8.1,3.5-8.2,7.9c0,4.2,3.4,7.6,7.6,7.6
			c4.4,0,8.1-3.5,8.2-7.9C319.2,75.3,315.8,71.9,311.6,71.9L311.6,71.9z"/>
		<path class="st0" d="M282,28.2c2.8,2.6,5.4,4.8,7.8,7.2c4.6,4.9,4.8,12.4,0.6,17.5c-4.3,5.2-11.7,6.3-17.3,2.7
			c-3.2-2.2-5.9-5-9-7.6L282,28.2z M272.2,47.8c2.7,2.8,5.4,5.3,9.5,4c3.2-0.8,5.5-3.5,6-6.8c0.7-4.2-1.9-6.6-5-8.9L272.2,47.8z"/>
		<path class="st0" d="M152.1,24.2l11.9,7.3c-2.1,0.8-3.8,1.6-5.6,2.1c-0.8,0.1-1.6,0-2.3-0.5c-3.3-1.9-6.5-3.9-10.2-5.7l3.6,9.5
			l-5.4,2.2l-9.6-24.9c3.8-1.4,7.4-2.9,11.1-3.9c3-0.8,5.7,0.6,7.5,3.2c1.8,2.4,2,5.8,0.4,8.4C153.2,22.6,152.7,23.2,152.1,24.2z
			 M144.1,22.9c1.6-1.2,3.2-2.5,4.6-3.9c0.3-0.3-0.4-2.1-1.1-2.6c-2.1-1.4-3.7,0.4-5.7,1L144.1,22.9z"/>
		<path class="st0" d="M108.4,27.2l3.6,4.5l-4,3.2l-4.2,3.4l2.8,3.6l6.5-5l3.5,4.3l-6.4,5.2L113,50l8.3-6.4l3.6,4.4L112,58.2
			L95.5,37.4L108.4,27.2z"/>
		<path class="st0" d="M204.6,21.3c-3.9,5.2-9.9,7-15.6,5.1c-5.5-1.9-9.1-7.1-9.2-12.9c0-5.9,3.8-11.1,9.4-12.9
			c5.6-1.9,11.7,0.1,15.1,4.9l-4.1,3.5c-4.3-4.2-8.6-4.6-12-1.3c-3.1,3.1-3.2,8-0.3,11.2c3.3,3.6,7.6,3.2,12.6-1.1L204.6,21.3z"/>
		<path class="st0" d="M222.8,29.8l21.7-20.4l2.7,29c-3.2,0.4-5.6-1.3-5.8-4.2c0.1-1.2-0.7-2.3-1.9-2.5c-1.3-0.4-2.5-0.8-3.7-1.4
			c-2.4-1.2-4.6-1.8-6.4,1c-0.4,0.4-1,0.5-1.6,0.4C226.1,31.2,224.6,30.6,222.8,29.8z M235.8,25.3l4.7,1.7l-0.4-5.7L235.8,25.3z"/>
		<path class="st0" d="M147.4,261.7c3.8-0.1,7.6-0.9,10.2,2.8c1.6,2.1,1.8,5,0.3,7.3c-2.4,4.2-6.5,3.5-10.6,3.5L147.4,261.7z
			 M150.3,264.6c-0.1,0.3-0.1,0.6-0.2,0.9c0,1.9,0,3.7,0,5.6c-0.1,1.4,0.6,1.7,1.8,1.6c2.3-0.1,4-1.9,4-4.2c0-0.2,0-0.4-0.1-0.6
			C155.5,265.2,153.5,264,150.3,264.6z"/>
		<path class="st0" d="M263.9,261.5c3.8-0.1,7,2.8,7.1,6.6c0,0.1,0,0.3,0,0.4c0,3.9-3.2,7-7.1,7s-7-3.2-7-7.1c0-3.8,3-6.9,6.8-6.9
			C263.8,261.5,263.8,261.5,263.9,261.5z M264,264c-2.4,0-4.3,1.9-4.4,4.3c-0.1,2.4,1.7,4.4,4.1,4.6c2.4,0.1,4.4-1.7,4.5-4.1
			c0-0.1,0-0.2,0-0.3C268.2,266.1,266.4,264.1,264,264z"/>
		<path class="st0" d="M59.8,275.3v-13.6c3.8-0.2,7.6-0.9,10.3,2.8c1.7,2.2,1.8,5.2,0.3,7.5C67.8,276,63.8,275.3,59.8,275.3z
			 M62.5,264.5c0,2.3,0,4.5,0,6.6c0,1.3,0.5,1.6,1.7,1.5c2.3,0,4.1-1.9,4.1-4.2c0-0.1,0-0.3,0-0.4C68,265.3,66.1,264.1,62.5,264.5z"
			/>
		<path class="st0" d="M233.5,272.6l4,0.3v2.3h-9.7l3.8-4.9c-0.5-0.4-0.9-0.7-1.3-1c-1.8-1.5-2.1-4.2-0.7-6.1
			c1.6-1.9,4.3-2.3,6.3-0.9c1.9,1.4,2.4,4,1,5.9c0,0,0,0,0,0.1C235.9,269.7,234.8,270.9,233.5,272.6z M235.6,265.6
			c-1.3-0.8-2.1-1.6-2.6-1.5c-0.7,0.4-1.3,1.1-1.4,1.9c0,0.5,1.1,1.5,1.6,1.5C233.9,267.4,234.5,266.6,235.6,265.6L235.6,265.6z"/>
		<path class="st0" d="M91.2,275.2v-13.4h8.1v2.7c-1.1-0.1-2.2-0.1-3.3,0c-0.7,0.3-1.4,0.7-2,1.2c0.6,0.5,1.2,1,1.9,1.3
			c0.8,0.2,1.6,0.2,2.3,0.2v2.7c-1-0.1-2-0.1-3,0.1c-0.5,0.1-0.8,0.8-1.3,1.2c0.4,0.4,0.8,1.1,1.3,1.2c1.3,0.1,2.7,0.1,4,0.1v2.8
			L91.2,275.2z"/>
		<path class="st0" d="M185.8,267v2.7l-3.9,0.2c-0.3,1.9-0.3,1.9,5,2.6c0.1,0.4,0.1,0.7,0.1,1.1c0,0.5,0,0.9-0.1,1.5h-8.1v-13.4h8.1
			l0.1,2.7c-1.3-0.1-2.7-0.1-4,0.1c-0.6,0.1-1,0.8-1.5,1.2c0.5,0.4,0.9,1.1,1.4,1.3C184,267.1,184.9,267.1,185.8,267z"/>
		<path class="st0" d="M126.9,263l-1.7,2c-0.5-0.3-1-0.6-1.4-0.6c-0.6,0.1-1.1,0.3-1.6,0.6c0.1,0.5,0.4,0.9,0.7,1.3
			c0.5,0.4,1,0.7,1.6,0.9c1.8,0.8,3.4,2,3.1,4.1c-0.2,1.4-1,2.7-2.1,3.5c-1.8,1.2-3.9,0.7-5.7-0.5c-0.5-0.4-1-0.9-1.4-1.4l2-1.7
			c0.3,0.1,0.4,0.1,0.6,0.2c0.9,0.4,1.9,0.8,2.9,1.1c0.2,0,0.8-0.9,0.7-0.9c-0.7-0.8-1.5-1.4-2.4-2c-1.8-0.9-3.3-2.2-3-4.3
			c0.3-1.4,1.1-2.6,2.3-3.4C123.1,261,125.1,261.2,126.9,263z"/>
		<path class="st0" d="M323.2,261.7c-2,4.4-3.9,8.7-5.9,12.8c-0.3,0.6-1.8,0.7-2.7,1l-0.4-0.5l4.8-10.8L314,264v-2.3H323.2z"/>
		<path class="st0" d="M60,118c-0.7-3.8-2.5-5.8-6.4-6.3c3.6-0.9,5.7-2.8,6.4-6.5c0.6,3.7,2.8,5.4,6.3,6.4
			C62.4,112.1,60.6,114.2,60,118z"/>
		<path class="st0" d="M332.5,118c-0.7-3.8-2.5-5.8-6.4-6.3c3.6-0.9,5.7-2.8,6.4-6.5c0.6,3.7,2.8,5.4,6.3,6.4
			C334.9,112.1,333.1,114.2,332.5,118z"/>
		<path class="st0" d="M291,275.1c0-3.4-0.2-6.7,0.1-10c0.1-1.1,1.3-2.1,2.5-3v13H291z"/>
	</g>
</g>
</svg>
