<svg xmlns="http://www.w3.org/2000/svg" viewBox="0 0 91 27.02"><defs><style>.cls-1{fill:#83da45;}.cls-2{fill:#aee521;}.cls-3{fill:#2dc58d;}.cls-4{fill:#02bab1;}.cls-5{fill:#58d069;}</style></defs><title>Asset 5</title><g id="Layer_2" data-name="Layer 2"><g id="Layer_1-2" data-name="Layer 1"><path class="cls-1" d="M67.62,26.49V17.67c0-2.71-.36-4.46-2.91-4.46a5.09,5.09,0,0,0-3.52,1.84V26.49H57V10h4.23v1.68A7.84,7.84,0,0,1,66.42,9.5c3.52,0,5.43,1.81,5.43,5.94v11Z"/><path class="cls-2" d="M86.77,0H91V25a14,14,0,0,1-7.27,2c-4.65,0-9.11-2.94-9.11-8.53,0-5.26,3.59-8.95,8.66-8.95a6.48,6.48,0,0,1,3.49,1Zm0,14.28A5,5,0,0,0,83.41,13c-2.65,0-4.33,2.23-4.33,5.43a4.76,4.76,0,0,0,4.65,5.07,5.9,5.9,0,0,0,3-.71Z"/><polygon class="cls-3" points="36.13 9.98 31.19 9.98 27.46 14.95 23.73 9.98 18.79 9.98 24.99 18.23 18.79 26.49 23.73 26.49 27.46 21.52 31.19 26.49 36.13 26.49 29.93 18.23 36.13 9.98"/><path class="cls-4" d="M16,13.27A9,9,0,0,0,8.78,9.45,8.78,8.78,0,0,0,8.78,27,9,9,0,0,0,16,23.2l3.73-5ZM8.78,23a4.8,4.8,0,1,1,4.8-4.8A4.8,4.8,0,0,1,8.78,23Z"/><path class="cls-5" d="M53.18,24.94a11.65,11.65,0,0,1-7.07,2C40.64,27,37,23.58,37,18.28A8.53,8.53,0,0,1,45.78,9.5c5.36,0,8,4.07,8,8.72v1.61H41.23c.45,3.07,3.23,3.78,5.81,3.78a8.2,8.2,0,0,0,4.28-1.14,4,4,0,0,0,.63-.47Zm-3.62-8.27a3.72,3.72,0,0,0-3.75-3.88,4.46,4.46,0,0,0-4.59,3.88Z"/></g></g></svg>