<?xml version="1.0" encoding="utf-8"?>
<!-- Generator: Adobe Illustrator 22.1.0, SVG Export Plug-In . SVG Version: 6.00 Build 0)  -->
<svg version="1.1" id="Layer_1" xmlns="http://www.w3.org/2000/svg" xmlns:xlink="http://www.w3.org/1999/xlink" x="0px" y="0px"
	 viewBox="0 0 180.2 85.4" style="enable-background:new 0 0 180.2 85.4;" xml:space="preserve">
<style type="text/css">
	.st0{fill:#4C4C4C;}
</style>
<title>logo-cuti</title>
<g id="Layer_2_1_">
	<g id="Main">
		<path class="st0" d="M24.3,85.4c-2.4-0.1-4.8-0.6-7-1.5c-3.3-1.4-5.9-4-7.5-7.2c-1.5-3.1-2.4-6.5-2.7-9.9c-0.4-3.6,0.1-7.2,0-10.8
			c-0.1-4-0.8-7.9-2.2-11.7c-1.9-5.1-3.2-10.4-4-15.8C0.2,24-0.1,19.5,0,14.9C0,11.2,0.7,7.5,2,4c0.3-0.8,0.8-1.5,1.3-2.2
			c1.4-1.9,4.1-2.3,6-1c1.7,1,3.4,2.1,5.1,3s3.4,1.4,5.1,2c0.1,0,0.2,0,0.3,0.1c1.7,0.4,3.5,0.9,5.2,1.3c0.5,0.1,1.1-0.1,1.6,0.1
			c1.5,0.5,3.2,0.1,4.7,0.5c0.2,0,0.5,0,0.7-0.1c2.1-0.4,4.2,0.5,5.4,2.2c1.3,1.6,2.2,3.5,2.6,5.5c0.5,2.3,0.9,4.6,1.3,7
			c0,0.6,0.5,1.1,1.1,1.3c2.6,0.7,5,1.7,7.3,3c1.6,0.8,2.8,2.1,3.5,3.7c0.2,0.5,0.3,1.1,0.4,1.7c0,0.6,0.2,1.2,0.6,1.6
			c0.6,0.9,1,2,1.1,3.1c0,0.3,0.2,0.7,0.3,0.9c0.8,1,1.2,2.3,1.3,3.5c0,0.3,0.2,0.5,0.3,0.7c0.8,1,1.3,2.2,1.5,3.5
			c0.1,0.3,0.2,0.6,0.3,0.8c0.7,1.1,1.2,2.2,1.5,3.5c0.1,0.4,0.3,0.7,0.5,1c0.4,1,0.8,2,1.3,3c0.1,0.2,0.2,0.5,0.3,0.7
			c0.2,0.4,0.5,0.7,0.6,1.1c0.9,1.9,1.8,3.8,2.5,5.7c1.3,3.3,0.3,6.2-2.1,8.7c-2.1,2.2-4.6,4-7.3,5.3c-6.7,3.4-13.6,6.3-20.8,8.4
			C32,84.8,28.2,85.4,24.3,85.4z M23.7,62.9c1.5,0,2.9-0.3,4.3-0.8c3.1-1.2,5.9-2.9,8.2-5.3c1.8-1.7,3.6-3.6,5.2-5.5
			c2.2-2.6,4.3-5.2,6.4-7.8c0.3-0.3,0.3-0.8,0-1.1c0,0,0,0,0,0c-2.2-2.9-4.1-6-5.6-9.2c-1.3-2.9-3-5.7-4.9-8.3
			c-1.4-1.9-3.3-3.4-5.5-4.4c-2.4-1-4.6-2.3-6.9-3.6c-0.5-0.3-0.7-0.3-1,0.2c-1.6,2.6-3.3,5.2-4.7,7.9c-2.8,5.2-5,10.6-6.6,16.3
			c-1,3.6-1.8,7.3-2.7,11c-0.1,0.5,0,1.1,0.3,1.6c1.4,2.2,3,4.1,4.9,5.8C17.5,61.7,20.6,62.9,23.7,62.9z M12.3,70.3
			c0.7,1,1.5,2,2.4,3c3.2,3.3,7.2,4.1,11.5,3.7c3-0.3,5.9-1.1,8.6-2.3c5.1-2.2,10.1-4.8,14.9-7.8c3.1-1.7,5.9-3.9,8.4-6.4
			c0.8-1,1.6-2,2.2-3.1c0.2-0.2,0.2-0.5,0.1-0.8c-0.4-0.5-0.8-1-1.2-1.4c-0.1,0.2-0.2,0.2-0.3,0.3c-1.5,2.1-3.2,3.9-5.3,5.4
			c-3.1,2.3-6.2,4.5-9.4,6.6c-3.5,2.4-7.1,4.4-11,6c-3.2,1.4-6.8,2.1-10.3,2c-3.4-0.1-6.7-1.5-9.1-3.9
			C13.4,71.1,12.7,70.7,12.3,70.3z M61.8,58.4c-0.4,0.7-0.8,1.3-1.3,1.8c-1.6,2-3.5,3.8-5.7,5.2C49,69.6,42.6,73.1,36,76
			c-3.8,1.8-8,2.7-12.2,2.8c-4.1,0.1-7.9-1.6-10.7-4.5c-0.2-0.2-0.3-0.3-0.6-0.6c0,0.1,0,0.2,0.1,0.3c0,0.1,0.1,0.2,0.2,0.3
			c2.3,3.6,6.2,5.8,10.4,5.9c3.7,0.2,7.4-0.4,10.8-1.7c6.7-2.3,13.1-5.3,19.2-8.9c2.5-1.4,4.8-3.1,6.9-5.1c1.2-1.1,2-2.6,2.4-4.2
			C62.6,59.6,62.4,58.8,61.8,58.4z M56.4,52.2c-0.8,0.9-1.5,1.7-2.2,2.5c-2.8,2.8-5.8,5.4-9,7.7c-3.6,2.9-7.6,5.5-11.7,7.6
			c-3.1,1.6-6.5,2.5-10,2.5c-4.1,0-7.9-1.9-10.5-5.1c-0.4-0.4-0.7-0.9-1.1-1.3l-0.2,0.1c0.6,1,1.3,2,2,2.9c3.1,3.9,7.1,5.4,12,4.9
			c3.2-0.4,6.4-1.4,9.2-3c6.9-3.4,13.3-7.7,19.2-12.6c1.2-1.2,2.4-2.5,3.5-3.8c0.2-0.3,0.5-0.6,0.1-1S56.9,52.7,56.4,52.2L56.4,52.2
			z M13,77.6l-0.2,0.2c0.6,0.6,1.1,1.3,1.7,1.9c2.7,2.4,6.3,3.7,9.9,3.6c4,0,8.1-0.7,11.9-2c4.9-1.6,9.7-3.5,14.4-5.6
			c3.8-1.6,7.3-3.7,10.5-6.3c1.5-1.2,2.6-2.8,3-4.7c0.2-0.8,0.1-1.6-0.2-2.3c-0.4,0.7-0.7,1.3-1.2,1.9c-1.5,2-3.3,3.7-5.5,5
			C50,74,41.9,77.9,33.5,80.6c-3.5,1.2-7.2,1.7-10.9,1.3c-2.9-0.2-5.7-1.3-8-3C14,78.5,13.6,78,13,77.6z M11.5,62.4
			c1.2,2.8,3.2,5.2,5.7,6.9c3.1,1.8,6.8,2.3,10.2,1.4c3.6-0.9,6.9-2.4,10-4.5c5.2-3.3,10-7.1,14.6-11.2c1.1-1,2.1-2.2,3.1-3.4
			c0.1-0.2,0.3-0.5,0.2-0.7c-0.5-0.6-1-1.2-1.6-1.8c-1,1.1-1.9,2.3-3,3.2c-3,2.8-6,5.6-9.1,8.3c-3,2.7-6.4,5-10,6.7
			c-2.4,1.2-5,1.8-7.6,1.9c-4.1,0.1-8-1.7-10.7-4.9C12.6,63.9,12.1,63.1,11.5,62.4z M51.1,46.4c-1,1.2-2,2.4-3,3.5
			c-3.3,3.7-6.9,7.2-10.7,10.5c-2.8,2.4-6.1,4.3-9.6,5.4c-3,1-6.3,0.9-9.3-0.4c-2.9-1.3-5.3-3.4-7.1-6l-0.6-0.8l-0.1,0.1
			c0.1,0.2,0.2,0.5,0.3,0.7c0.9,1.7,2,3.3,3.3,4.7c3,3.5,7.7,5,12.1,4c3.2-0.7,6.2-2.1,8.9-4c5.4-3.8,10.4-8.1,15-12.9
			c0.8-0.8,1.4-1.6,2.1-2.5c0.1-0.2,0.1-0.4,0-0.7C52.1,47.5,51.6,47,51.1,46.4L51.1,46.4z M48.7,43.6l-0.6,0.8
			c-3.5,4.9-7.6,9.4-12,13.6c-2.3,2.1-4.9,3.7-7.8,4.8c-3.5,1.3-7.4,1.1-10.7-0.6c-2.8-1.6-5.3-3.8-7.1-6.6l-0.7-0.9
			c0,0.1,0,0.2,0,0.3c0,0.1,0.1,0.2,0.1,0.2c1.3,2.8,3.2,5.3,5.5,7.3c2.3,2.1,5.4,3.2,8.5,3.1c2.2-0.1,4.4-0.7,6.5-1.7
			c3.5-1.8,6.7-4.2,9.5-7c2.3-2.2,4.5-4.5,6.7-6.9c1.2-1.2,2.2-2.6,3.3-3.9c0.2-0.2,0.2-0.5,0.1-0.7C49.7,44.8,49.2,44.2,48.7,43.6
			L48.7,43.6z M3.2,36.3h0.2c0-0.2,0-0.4-0.1-0.6c-0.7-4.3-1-8.6-1.1-13c0-1.7,0-3.4,0.1-5.1c0.1-3.2,0.6-6.5,1.5-9.6
			c0.2-0.8,0.5-1.5,0.8-2.2c1-2,2.3-3.8,4.8-4C8.2,0.7,5.7,0.3,4.3,1.7C3.1,3,2.2,4.7,1.9,6.5c-1,4-1.3,8.2-1.1,12.3
			c0.1,3.6,0.5,7.2,1.1,10.8C2.3,31.9,2.7,34.1,3.2,36.3z M11.9,3.7c-0.3-0.3-0.6-0.5-0.9-0.7C9.7,2.6,8.3,2.8,7.2,3.8
			C6,5.1,5.1,6.8,4.7,8.6C3.6,12.2,3.1,16,3.2,19.8c0,3.5,0.2,7,0.4,10.4C3.7,32.2,4,34,4.3,35.9c0.1-1.6-0.1-3.1-0.1-4.7
			C4,26.6,4.2,22,4.8,17.4c0.3-3,1.1-5.9,2.2-8.7C8,6.5,9.2,4.5,11.9,3.7L11.9,3.7z M5.5,34.9c0.3-3.7,0.5-7.6,1-11.5
			c0.4-4,1.3-8,2.8-11.8c0.8-2.3,2.2-4.3,4.1-5.7c0.1-0.1,0.2-0.3,0.2-0.4c-0.2-0.4-0.4-0.8-1-0.7c-1,0.1-1.9,0.5-2.5,1.2
			c-1.2,1.3-2,2.8-2.5,4.5c-1.4,4.4-2.1,9-2.2,13.6c-0.1,2.7,0,5.4,0,8.1C5.3,33.2,5.4,34.2,5.5,34.9z M7.1,34.1L7.1,34.1
			c0.2-1.7,0.4-3.5,0.7-5.2C8.4,24.4,9.5,20,11,15.7c0.8-2.5,2.2-4.9,3.9-6.9C15.6,8,15.6,8.3,15,7.4c-0.4-0.6-0.5-0.6-1.2-0.2
			c-1.3,1-2.2,2.4-2.8,3.9c-1.5,3.4-2.6,7-3,10.7c-0.4,2.8-0.7,5.7-0.9,8.5C7.1,31.6,7.1,32.8,7.1,34.1L7.1,34.1z M8.8,34h0.1
			L9,33.4c0.8-3.3,1.5-6.7,2.5-9.9c1.1-4.5,3.1-8.6,5.9-12.4c0.1-0.2,0.1-0.4,0-0.6c-0.3-0.4-0.6-0.8-0.9-1.1
			c-0.5,0.6-1.1,1.2-1.5,1.8c-1.3,2-2.3,4.1-3,6.4c-1.3,4.2-2.3,8.6-2.8,13C9,31.7,8.9,32.9,8.8,34z M11,32.9h0.1
			c0.1-0.2,0.1-0.3,0.2-0.5c0.5-1.6,1-3.3,1.6-4.9c1.8-4.9,3.7-9.7,6.9-14c0.1-0.1,0.2-0.3,0.1-0.4c-0.3-0.4-0.6-0.7-1-0.9
			c-0.1-0.1-0.5,0.3-0.7,0.5c-1,1.9-2.2,3.7-3.1,5.6c-1.8,4.2-3.1,8.5-4,12.9C11.1,31.8,11,32.3,11,32.9z M53,31.9
			c0-0.4-0.1-0.5-0.1-0.7c-0.4-1.4-1.3-2.7-2.5-3.4c-1.8-1.2-3.7-2.1-5.7-2.7c-0.9-0.3-1.9-0.6-3-1c0.2,0.7,0,1.4,0.7,1.7
			C45.8,27.8,49.5,29.4,53,31.9L53,31.9z M13.4,32.1l0.2,0.1l0.3-0.6c1.5-3.1,2.9-6.3,4.5-9.4c1.2-2.2,2.6-4.3,3.9-6.4
			c0.4-0.6,0-0.7-0.3-1s-0.6-0.2-0.8,0.2c-0.5,0.7-1,1.3-1.4,2c-2.1,3.5-3.8,7.3-5.1,11.2C14.2,29.4,13.8,30.8,13.4,32.1L13.4,32.1z
			 M52.6,34.6c0.5-1,0.5-1.3-0.3-1.9c-0.4-0.4-0.8-0.7-1.3-1c-2.1-1.2-4.3-2.4-6.4-3.6c-0.7-0.4-1.4-0.8-2.2-1.2l-0.2,0.2
			c0.2,0.3,0.4,0.6,0.7,0.9c1.8,1.3,3.6,2.6,5.5,3.9C49.8,32.8,51.2,33.7,52.6,34.6L52.6,34.6z M44.7,30.6l-0.2,0.2l7.3,6
			c0.6-0.8,0.6-0.9-0.1-1.4c-2.2-1.5-4.3-3-6.5-4.5L44.7,30.6z M29.9,18.9l0.1-0.2l-4.2-3.1c-0.6-0.4-0.6-0.4-1,0.4L29.9,18.9z
			 M31.2,18.4L31.2,18.4c0-0.1,0-0.2,0-0.2c-1.5-1.3-3-2.7-4.5-4c-0.4-0.4-0.5,0-0.7,0.3L31.2,18.4z M31.5,16.9l0.1-0.1
			c-0.7-0.7-1.4-1.5-2-2.2c-0.5-0.5-1.1-1-1.6-1.5c-0.1-0.1-0.4-0.1-0.5-0.1c0,0.2,0.1,0.4,0.2,0.6c0.2,0.2,0.3,0.3,0.5,0.5
			L31.5,16.9z M52.7,36.4c0,0.4-0.2,0.8-0.1,1c0.4,0.4,0.9,0.9,1.5,1.2C54.5,37.8,54,37.1,52.7,36.4L52.7,36.4z M32.5,15.6
			L32.5,15.6c0.1-0.2,0-0.2,0-0.3c-1.1-1.2-2.2-2.3-3.3-3.5c-0.1-0.1-0.3-0.1-0.4-0.1l0.2-0.1L32.5,15.6z M21.3,11.8
			c-0.4-0.3-0.8-0.6-1.2-0.9c-0.1,0-0.6,0.6-0.6,0.6c0.3,0.4,0.6,0.7,1,1C20.6,12.5,21,12.1,21.3,11.8z M19.1,9.5
			c-0.4-0.3-0.8-0.6-1.2-0.9c-0.1-0.1-0.4,0.3-0.6,0.4c0.3,0.4,0.6,0.7,1,1C18.3,10.1,18.7,9.7,19.1,9.5z M22,13.8V14
			c0.4,0.2,0.7,0.4,1.1,0.5c0.1,0,0.4-0.5,0.4-0.6c-0.1-0.3-0.4-0.6-0.7-0.7S22.3,13.6,22,13.8z M51.8,38.7
			c-0.1,0.4,0.8,1.4,1.7,1.8C53.7,39.9,52.8,39,51.8,38.7z M16.9,7.2c-0.5-0.8-0.7-0.9-1.4-0.6C15.9,7.7,16.2,7.8,16.9,7.2z
			 M20.9,10.3c0.3,0.2,0.5,0.4,0.8,0.6c0.2,0.1,0.3,0.1,0.5,0c0.1-0.1,0.2-0.2,0.1-0.4C22.2,10,21.6,9.8,20.9,10.3L20.9,10.3z
			 M55.9,42.6c-0.2-0.9-0.8-1.3-1.3-1.8C54.3,41.3,54.4,41.5,55.9,42.6L55.9,42.6z M53.7,34.3c-0.5,0.9-0.5,1,0.7,1.7L53.7,34.3z
			 M23.4,12.7l1.1,0.3c0-0.2,0.1-0.5,0-0.6C24.1,11.9,23.8,12,23.4,12.7z M51,38.3l0.2-0.3l-2.1-1.7L49,36.6L51,38.3z M20.3,8.6
			l0-0.2l-1.1-0.3C19.7,8.9,19.7,8.9,20.3,8.6z M31.2,11.4l1.3,1.4l0,0L31.2,11.4z M25.1,11.1l-0.1,0.3l0.6,0.1c0-0.1,0-0.4,0-0.4
			C25.5,11.1,25.3,11.1,25.1,11.1L25.1,11.1z"/>
		<path class="st0" d="M107.2,41.6c0-3.2,0-6.5,0-9.7c0-1.6,0.7-2.3,2.3-2.3c0.8,0,1.6,0,2.4,0c1-0.1,1.9,0.7,2,1.7
			c0,0.1,0,0.1,0,0.2c0,0.3,0,0.5,0,0.8c0,6.1,0,12.2,0,18.3c-0.1,2.4,0.8,4.7,2.3,6.6c2.9,3.3,7.8,3.9,11.4,1.3
			c2.5-1.9,4-4.9,3.8-8c0-6.2,0-12.4,0-18.6c0-1.6,0.6-2.3,2.3-2.3c0.8,0,1.6,0,2.4,0c1-0.1,1.9,0.6,2,1.6c0,0,0,0.1,0,0.1
			c0,0.3,0.1,0.7,0.1,1c0,5.9,0,11.8,0,17.6c0.1,3.2-0.7,6.5-2.3,9.3c-2.2,3.8-6,6.4-10.4,7c-4.4,0.9-9-0.2-12.6-3
			c-3-2.3-4.9-5.7-5.4-9.4c-0.2-1.1-0.3-2.3-0.3-3.4C107.1,47.4,107.2,44.5,107.2,41.6z"/>
		<path class="st0" d="M145.8,37.7c0-5.4,0-10.8,0-16.2c0-0.4,0-0.7,0.1-1.1c0.1-0.8,0.8-1.4,1.7-1.4c0.8,0,1.5,0,2.3,0
			c2.1-0.2,2.7,0.9,2.6,2.7c-0.1,2.3,0,4.6,0,6.9c0,1,0,1,1,1h9.8c1-0.2,2,0.5,2.2,1.6c0,0.2,0,0.4,0,0.6c0,0.7,0,1.4,0,2.2
			c0.1,1-0.5,1.9-1.5,2c-0.2,0-0.3,0-0.5,0h-10.1c-0.9,0-0.9,0-0.9,0.8c0,6.1,0,12.2,0,18.3c0,0.6,0.1,1.2,0.2,1.7
			c0.5,1.7,1.9,2.6,4,2.6s4.3,0,6.5,0c1.5,0,2.2,0.7,2.2,2.2c0,0.8,0,1.5,0,2.3c0.1,0.9-0.6,1.8-1.6,1.8c-0.1,0-0.2,0-0.3,0
			c-2.7,0-5.4,0-8.1,0c-4.3-0.1-7.9-3-9-7.1c-0.4-1.6-0.6-3.2-0.7-4.9C145.8,48.3,145.8,43,145.8,37.7z"/>
		<path class="st0" d="M95.7,65.6c-3.2,0.2-6.4-0.3-9.2-1.7c-6-2.9-9.6-7.5-10.4-14.2c-0.7-4.6,0.6-9.3,3.4-12.9
			c3.1-4.1,7.8-6.7,13-7.1c2-0.2,4.1-0.1,6.1-0.1c0.9-0.1,1.7,0.6,1.8,1.5c0,0.1,0,0.1,0,0.2c0.1,1,0.1,2,0,3
			c-0.1,1.1-0.8,1.6-1.9,1.7c-2.1,0-4.2,0.1-6.3,0.4c-4.6,0.8-8.3,4.4-9.1,9c-0.7,3.1,0,6.4,1.8,9c2,2.8,5,4.5,8.4,4.9
			c1.6,0.1,3.3,0.2,4.9,0.2c1.5,0,2.2,0.6,2.2,2.1c0,0.8,0,1.5,0,2.2c0.1,1-0.6,1.9-1.6,2c-0.2,0-0.3,0-0.5,0L95.7,65.6L95.7,65.6z"
			/>
		<path class="st0" d="M173.6,47.6c0-5.3,0-10.6,0-15.8c0-1.6,0.7-2.3,2.3-2.3c0.8,0,1.5,0,2.3,0c1-0.1,1.9,0.7,2,1.7
			c0,0.1,0,0.2,0,0.3c0,10.7,0,21.4,0,32.1c0.1,1-0.6,1.9-1.5,2c-0.2,0-0.3,0-0.5,0c-0.9,0-1.8,0-2.7,0c-1,0.1-1.8-0.6-1.9-1.6
			c0-0.1,0-0.3,0-0.4C173.6,58.3,173.6,53,173.6,47.6z"/>
	</g>
</g>
</svg>
