<?xml version="1.0" encoding="utf-8"?>
<!-- Generator: Adobe Illustrator 22.1.0, SVG Export Plug-In . SVG Version: 6.00 Build 0)  -->
<svg version="1.1" id="Layer_1" xmlns="http://www.w3.org/2000/svg" xmlns:xlink="http://www.w3.org/1999/xlink" x="0px" y="0px"
	 viewBox="0 0 128.5 128.4" style="enable-background:new 0 0 128.5 128.4;" xml:space="preserve">
<style type="text/css">
	.st0{fill:#4C4C4C;}
</style>
<title>logo-ganacha</title>
<g id="Layer_2_1_">
	<g id="Main">
		<path class="st0" d="M28,51.5c0.2,0,0.4-0.1,0.6-0.1c1.3,0,2.7,0,4,0c0.4,0,0.8,0.2,1,0.5c3.1,4.1,6.2,8.1,9.3,12.2
			c0.6,0.8,1.3,1.7,2,2.5v-15c1.9-0.2,3.8-0.2,5.6,0v25.2c-0.3,0-0.5,0.1-0.7,0.1c-1.2,0-2.4,0-3.6,0c-0.4,0-0.7-0.1-0.9-0.4
			c-1.7-2.3-3.5-4.6-5.2-6.8l-5.9-7.8c-0.1-0.2-0.3-0.4-0.6-0.5c0,0.3,0,0.5,0,0.8c0,4.6,0,9.1,0,13.7c0,0.3,0,0.7-0.1,1h-5.5
			C27.9,76.4,27.9,52.5,28,51.5z"/>
		<path class="st0" d="M46.7,24.6c-0.5-0.4-0.9-0.7-1.4-1c-1.4-1-3.1-1.5-4.8-1.6c-2-0.1-3.9,0.6-5.3,2c-1.3,1.3-2.1,3-2.2,4.9
			c-0.2,1.7,0.1,3.5,1,5.1c1.3,2.4,3.8,3.8,6.6,3.7c1.5,0,3.1-0.4,4.4-1.1c0.4-0.1,0.6-0.5,0.6-0.9c0-0.8,0-1.5,0-2.2
			c0-0.5-0.1-0.6-0.6-0.6h-4.1c-0.3,0-0.6,0-0.9-0.1v-4.9c0.2,0,0.5-0.1,0.7-0.1h9.7c0.3,0,0.5,0,0.8,0.1c0,0.3,0,0.5,0,0.7
			c0,3.2,0,6.4,0,9.7c0,0.5-0.2,0.9-0.6,1.1c-2.1,1.7-4.7,2.9-7.3,3.3c-2.7,0.5-5.5,0.3-8.2-0.6c-3.5-1.2-6.3-4-7.5-7.5
			c-1.2-3.2-1.1-6.8,0.3-10c1.2-2.9,3.4-5.2,6.2-6.5c1.7-0.8,3.5-1.3,5.4-1.4c2.5-0.2,5.1,0.3,7.4,1.3c1.2,0.6,2.4,1.3,3.4,2.3
			C49.1,21.7,47.9,23.1,46.7,24.6z"/>
		<path class="st0" d="M82,85.9h19.1c0.2,1.7,0.2,3.4,0.1,5.1c-0.3,0-0.6,0.1-1,0.1H87.8c0,1.6,0,3.2,0,4.8c0.3,0,0.6,0,0.8,0h10
			c0.3,0,0.6,0,0.8,0c0.2,1.7,0.2,3.4,0,5.1c-0.3,0-0.6,0.1-0.9,0.1h-9.9c-0.3,0-0.6,0-0.9,0.1v4.9c0.3,0,0.6,0.1,0.9,0.1h11.7
			c1.1,0,1.1,0,1.1,1s0,2.1,0,3.2c0,0.9,0,0.9-1,0.9H83c-0.3,0-0.6,0-1-0.1V85.9z"/>
		<path class="st0" d="M54.7,85.9h5.6c0,0.3,0.1,0.6,0.1,0.9c0,2.6,0,5.2,0,7.8c0,0.2,0,0.4,0,0.5c0,0.6,0.1,0.6,0.7,0.6h8.8
			c0.2,0,0.3,0,0.5-0.1c0-0.6,0-1.3,0-1.9c0-0.7,0-1.3,0-2V86c1.9-0.2,3.8-0.3,5.7-0.1c0,0.3,0.1,0.6,0.1,0.9c0,2.4,0,4.7,0,7.1
			c0,5.5,0,10.9,0,16.4c0,1.1,0,1.1-1,1.1h-3.8c-0.3,0-0.5,0-0.9-0.1c-0.1-3.4,0-6.7,0-10.1h-10c0,0.4-0.1,0.6-0.1,0.9
			c0,2.7,0,5.5,0,8.2c0,1,0,1-1,1h-3.8c-0.3,0-0.6-0.1-0.9-0.1V85.9z"/>
		<path class="st0" d="M54.3,76.9c0.3-0.7,0.5-1.2,0.7-1.7l7.9-18.5c0.7-1.6,1.4-3.2,2-4.8c0.1-0.4,0.5-0.7,0.9-0.6c1.3,0,2.7,0,4,0
			c0.2,0,0.4,0,0.7,0l10.9,25.6c-0.2,0-0.4,0.1-0.6,0.1c-1.6,0-3.2,0-4.8,0c-0.4,0-0.7-0.2-0.8-0.5c-0.6-1.5-1.2-2.9-1.8-4.4
			c-0.3-0.7-0.3-0.7-1-0.7c-3,0-6.1,0-9.1,0c-0.4-0.1-0.9,0.2-1,0.6c-0.5,1.4-1.1,2.7-1.7,4.1c-0.4,1-0.3,0.9-1.3,0.9L54.3,76.9
			L54.3,76.9z M67.8,58.6h-0.2c-1,2.5-2,4.9-3,7.5h1.6h1.6c0.5,0,1,0,1.5,0c0.5,0.1,1,0,1.5-0.1L67.8,58.6z"/>
		<path class="st0" d="M54.1,42.4c0.1-0.3,0.2-0.6,0.3-0.8L63.2,21c0.5-1.2,1-2.4,1.5-3.6c0.1-0.4,0.5-0.7,0.9-0.6c1.3,0,2.7,0,4,0
			c0.4,0,0.8,0.2,0.9,0.6c1.1,2.7,2.3,5.4,3.4,8.1l5.3,12.5c0.5,1.3,1.1,2.5,1.6,3.8c0.1,0.2,0.1,0.3,0.2,0.6c-0.3,0-0.5,0-0.7,0
			c-1.6,0-3.1,0-4.7,0c-0.4,0.1-0.8-0.2-0.9-0.6c-0.6-1.4-1.2-2.8-1.8-4.3c-0.1-0.4-0.5-0.7-1-0.7c-3,0-6,0-9,0c-0.7,0-0.7,0-1,0.7
			c-0.6,1.5-1.2,2.9-1.8,4.4c-0.1,0.3-0.3,0.5-0.6,0.5c-1.7,0-3.4,0-5,0C54.4,42.5,54.3,42.4,54.1,42.4z M70.7,31.7l-3.1-7.6
			c-1.2,2.5-2.2,5-3,7.6H70.7z"/>
		<path class="st0" d="M50.2,89.5l-3.6,4.1L45.8,93c-1.3-1.1-2.8-1.8-4.4-2.2c-3.3-0.6-6.6,1.2-7.8,4.3c-1.3,2.9-0.9,6.2,1.1,8.7
			c1.3,1.6,3.2,2.6,5.3,2.6c2.3,0,4.5-0.9,6.2-2.4c0.2-0.2,0.4-0.3,0.7-0.5l3.6,3.7c-0.5,0.7-1.2,1.3-1.9,1.9
			c-2.2,1.8-4.9,2.8-7.8,2.8c-1.5,0.1-3-0.1-4.5-0.5c-3-0.8-5.6-2.7-7.3-5.3c-2.5-3.8-2.9-8.6-1-12.7c1.7-4.3,5.6-7.2,10.2-7.7
			c2.3-0.3,4.6-0.1,6.8,0.5c1.9,0.6,3.6,1.6,5,3c0.1,0.1,0.1,0.1,0.2,0.2C50.2,89.4,50.2,89.4,50.2,89.5z"/>
		<path class="st0" d="M123.4,5.1v118.2H5.1V5.1H123.4 M128.5,0H0v128.4h128.5V0z"/>
	</g>
</g>
</svg>
