<svg xmlns="http://www.w3.org/2000/svg" viewBox="0 0 105.96 104.89"><defs><style>.cls-1{fill:#4c4c4c;}</style></defs><title>logo-cp</title><g id="Layer_2" data-name="Layer 2"><g id="Menu"><path class="cls-1" d="M50.87,0S28.23,21.13,0,18c0,0-1.66,59,50.86,86.93Z"/><path class="cls-1" d="M61.13,12c1.23.78,2.55,1.58,4,2.38a81.33,81.33,0,0,0,15.44,6.79,65.16,65.16,0,0,0,19.11,3.14c-.08.93-.18,1.94-.3,3a107.58,107.58,0,0,1-5,22.08A92.67,92.67,0,0,1,80.24,76.07,84.58,84.58,0,0,1,61.13,94.18V12m-6-12V104.89C107.61,77,106,18,106,18a52.08,52.08,0,0,1-5.82.32c-25.45,0-45-18.28-45-18.28Z"/></g></g></svg>