<?xml version="1.0" encoding="utf-8"?>
<!-- Generator: Adobe Illustrator 22.1.0, SVG Export Plug-In . SVG Version: 6.00 Build 0)  -->
<svg version="1.1" id="Layer_1" xmlns="http://www.w3.org/2000/svg" xmlns:xlink="http://www.w3.org/1999/xlink" x="0px" y="0px"
	 viewBox="0 0 165.5 34.7" style="enable-background:new 0 0 165.5 34.7;" xml:space="preserve">
<style type="text/css">
	.st0{fill:#4C4C4C;}
</style>
<title>logo-tryolabs</title>
<g id="Layer_2_1_">
	<g id="Main">
		<path class="st0" d="M5.4,0.2c1.5,0,2.9,0.5,3.9,1.6c2.6,2.7,5.2,5.3,7.8,7.9c2,2.1,2,5.5,0,7.6c-2.3,2.4-4.6,4.7-6.9,7
			c-0.4,0.4-0.8,0.8-1.2,1.2c-1.5,1.3-3.6,1.7-5.4,0.9c-1.9-0.7-3.2-2.4-3.4-4.4c-0.3-1.8,0.3-3.5,1.6-4.8C2.9,16.1,4,15,5.2,13.8
			c0.2-0.2,0.2-0.3,0-0.5C4,12,2.7,10.8,1.5,9.5C0.1,8-0.4,5.8,0.4,3.8c0.6-2,2.4-3.4,4.4-3.6C5,0.2,5.2,0.2,5.4,0.2z M11.8,18.9
			c-2-0.5-3.1-2.1-4.4-3.4c-0.1,0-0.1,0.1-0.2,0.1c-1.2,1.3-2.6,2.6-3.8,3.9c-0.6,0.6-0.8,1.4-0.7,2.3c0.1,1.1,0.8,2,1.8,2.3
			c1,0.4,2.1,0.1,2.9-0.7c1.2-1.2,2.4-2.5,3.6-3.7L11.8,18.9z M11.7,8.1C11.7,8.1,11.7,8.1,11.7,8.1C10.2,6.6,8.8,5,7.3,3.6
			c-1.1-1-2.7-1-3.8,0c-1.1,1-1.2,2.7-0.2,3.8c1.2,1.3,2.5,2.6,3.8,3.9c0.1,0.1,0.2,0.1,0.3,0.1c0,0,0.1-0.1,0.1-0.1
			c0.3-0.3,0.6-0.6,0.8-0.9C9,9.9,9.6,9.3,10.3,8.8C10.7,8.5,11.2,8.3,11.7,8.1z M15.9,13.6c0.1-1.1-0.5-2.1-1.5-2.6
			c-0.9-0.5-2-0.5-2.8,0.2c-0.8,0.7-1.5,1.4-2.2,2.1c-0.1,0.1-0.1,0.2,0,0.4c0.6,0.6,1.2,1.3,1.8,1.9c0.8,0.8,2,1,3,0.5
			C15.3,15.6,15.9,14.7,15.9,13.6z"/>
		<path class="st0" d="M137.7,8.1c0.5-0.2,0.9-0.3,1.4-0.5c1.7-0.6,3.5-0.6,5.1,0c2.3,0.9,3.9,3,4.2,5.4c0.1,0.6,0.1,1.3,0.1,1.9
			c0,1.5,0,3.1,0,4.6c0.1,2.5-1.2,4.8-3.3,6.2c-1.1,0.7-2.3,1-3.5,1.1c-2.1,0.1-4.1-0.2-6.1-0.9c-1.1-0.3-1.9-1.4-1.8-2.5
			c0-7.1,0-14.2,0-21.2c-0.1-1,0.7-1.9,1.7-2.1c1-0.1,2,0.6,2.1,1.6c0,0.1,0,0.2,0,0.3c0,1.9,0,3.8,0,5.7
			C137.7,7.8,137.7,7.9,137.7,8.1z M144.7,17L144.7,17c0-1.1,0-2.2,0-3.3c0-1.3-1-2.4-2.3-2.7c-1.6-0.4-3.2,0-4.5,1
			c-0.1,0.1-0.2,0.3-0.2,0.5c0,3.3,0,6.7,0,10c0,0.3,0.1,0.4,0.3,0.4c1.2,0.3,2.5,0.4,3.7,0.3c1.6,0,2.9-1.3,2.9-2.9
			C144.7,19.2,144.7,18.1,144.7,17L144.7,17z"/>
		<path class="st0" d="M129.4,18.3c0,1.7,0,3.4,0,5.2c0,1-0.6,2-1.6,2.3c-1.2,0.4-2.5,0.7-3.8,0.9c-1.5,0.2-2.9,0.1-4.4-0.1
			c-2.4-0.4-4.3-2.3-4.8-4.7c-0.7-3.1,1.2-6.1,4.3-6.8c0.1,0,0.2,0,0.3-0.1c0.8-0.2,1.6-0.3,2.4-0.3c1.1,0,2.2,0,3.3,0
			c0.3,0,0.4-0.1,0.4-0.4c0-0.4,0-0.9,0-1.4c-0.2-1.2-1.3-2.1-2.5-2.2c-1.5-0.2-3.1,0.2-4.4,1c-0.8,0.6-1.9,0.4-2.5-0.4
			c-0.6-0.9-0.4-2.1,0.5-2.7c0,0,0.1,0,0.1-0.1c1.3-0.8,2.7-1.3,4.2-1.4c1.3-0.2,2.5-0.2,3.8,0.1c2.7,0.6,4.7,3,4.7,5.8
			C129.4,14.9,129.4,16.6,129.4,18.3z M125.5,20.5c0-0.6,0-1.2,0-1.8c0-0.3-0.1-0.4-0.4-0.4c-1.1,0-2.3,0-3.4,0
			c-0.6,0-1.2,0.1-1.8,0.3c-0.7,0.2-1.2,0.7-1.3,1.3c-0.4,1.2,0.3,2.5,1.6,2.9c0.2,0.1,0.4,0.1,0.5,0.1c1.5,0.2,3.1,0.1,4.6-0.3
			c0.2,0,0.3-0.2,0.3-0.3c0,0,0,0,0,0C125.5,21.8,125.5,21.2,125.5,20.5z"/>
		<path class="st0" d="M61.8,20.4c0.2-0.7,0.4-1.4,0.6-2c1-3.2,2-6.5,3-9.7c0.2-0.9,1.1-1.6,2.1-1.5C68.3,7.3,69,8,69.2,8.8
			c0,0.3,0,0.7-0.1,1c-1.4,4.3-2.8,8.7-4.3,13c-0.8,2.4-1.5,4.7-2.3,7c-1,2.9-3.8,4.9-6.9,4.8c-0.7,0.1-1.5-0.3-1.8-1
			c-0.4-0.6-0.3-1.4,0.2-2c0.4-0.4,0.9-0.7,1.5-0.7c0.5-0.1,1.1-0.2,1.6-0.4c0.9-0.3,1.6-1.1,1.8-2c0.3-0.9,0.6-1.8,0.8-2.8
			c0-0.2,0-0.4-0.1-0.6c-1.7-4.4-3.3-8.8-5-13.2c-0.3-0.8-0.6-1.6-0.9-2.4c-0.3-0.8,0-1.6,0.7-2.1c0.8-0.7,2-0.5,2.6,0.3
			c0.2,0.2,0.3,0.4,0.4,0.7l3.3,9.2l0.9,2.4C61.7,20.2,61.7,20.3,61.8,20.4z"/>
		<path class="st0" d="M88,17c0,1.1,0,2.3-0.1,3.4c-0.3,3.4-3,6.1-6.4,6.4c-1.6,0.2-3.3,0-4.8-0.7c-2.2-1-3.7-3.1-3.9-5.5
			c-0.2-1.6-0.2-3.3-0.2-4.9c0-0.7,0-1.5,0.1-2.2c0.4-3.3,3-5.9,6.3-6.2c1.6-0.2,3.3,0,4.8,0.7c2.3,1,3.8,3.2,4,5.7
			C87.9,14.7,88,15.9,88,17z M84.1,17c0-0.9,0-1.8,0-2.7c0-1.3-0.8-2.6-2-3.1c-0.8-0.3-1.6-0.4-2.4-0.3c-1.7,0.1-3.1,1.4-3.2,3.1
			c-0.1,2-0.1,4.1,0,6.1c0,1.1,0.5,2,1.5,2.6c1.4,0.8,3.1,0.9,4.5,0.1c1.1-0.6,1.7-1.7,1.6-2.9C84.2,18.8,84.1,17.9,84.1,17z"/>
		<path class="st0" d="M159.4,7.1c1.7,0,3.3,0.3,4.8,1c0.7,0.3,1.1,0.9,1.1,1.7c0,0.7-0.4,1.4-1,1.7c-0.6,0.3-1.2,0.3-1.8,0
			c-1.3-0.5-2.6-0.8-4-0.7c-0.9,0-1.7,0.6-1.9,1.4c-0.2,1,0.4,2,1.4,2.2c0,0,0.1,0,0.1,0c0.6,0.2,1.3,0.4,1.9,0.6
			c0.8,0.3,1.6,0.5,2.4,0.8c4,1.6,4,6.4,2,8.6c-1,1.2-2.4,1.9-3.9,2.1c-2.2,0.3-4.5,0-6.5-0.9c-1-0.4-1.4-1.5-1.1-2.5
			c0.2-0.5,0.7-1,1.2-1.1c0.5-0.1,0.9-0.1,1.4,0.1c1.3,0.7,2.8,0.9,4.3,0.8c0.3,0,0.6-0.1,0.9-0.2c0.6-0.2,1.1-0.7,1.1-1.3
			c0.2-0.7-0.1-1.4-0.7-1.8c-0.4-0.3-0.9-0.5-1.4-0.7c-1.1-0.4-2.2-0.8-3.3-1.2c-1.8-0.6-3.1-2.1-3.4-4c-0.6-3,1.3-5.9,4.3-6.5
			c0.1,0,0.2,0,0.3,0C158.1,7.2,158.7,7.2,159.4,7.1z"/>
		<path class="st0" d="M27.2,11.6c0-3.2,0-6.4,0-9.6c-0.1-1.1,0.8-2,1.8-2c0.1,0,0.3,0,0.4,0c0.9,0.2,1.6,1,1.6,1.9
			c0,1.7,0,3.5,0,5.2c0,0.4,0.1,0.5,0.5,0.5c1,0,2,0,3,0c1,0,1.9,0.8,1.9,1.8c0,1-0.8,1.9-1.8,1.9c-1,0-2,0-3,0
			c-0.5,0-0.5,0-0.5,0.5c0,3,0,5.9,0,8.9c0,0.3,0,0.6,0.1,0.9c0.1,0.9,1,1.6,1.9,1.5c0.1,0,0.2,0,0.3-0.1c0.3,0,0.6-0.1,0.8-0.2
			c0.9-0.2,1.9,0.3,2.2,1.2c0.3,0.9-0.2,1.9-1.1,2.3c-0.5,0.2-1,0.3-1.5,0.3c-3,0.6-5.8-1.4-6.4-4.4c0-0.2-0.1-0.4-0.1-0.6
			c0-0.3,0-0.6,0-0.8C27.2,17.8,27.2,14.7,27.2,11.6z"/>
		<path class="st0" d="M106.3,13.4c0-3.8,0-7.7,0-11.5c0-1.1,0.9-1.9,1.9-1.9c0.8,0,1.5,0.5,1.8,1.3c0.1,0.2,0.1,0.4,0.1,0.6
			c0,7.6,0,15.2,0,22.9c0,0.9-0.6,1.6-1.4,1.9c-0.8,0.2-1.7-0.1-2.1-0.8c-0.2-0.4-0.3-0.8-0.3-1.2C106.3,21,106.3,17.2,106.3,13.4z"
			/>
		<path class="st0" d="M44.9,18.6c0,2,0,3.9,0,5.9c0,0.3,0,0.6-0.1,0.9c-0.2,0.9-1.1,1.5-2.1,1.4c-1-0.2-1.7-1-1.7-1.9
			c0-0.1,0-0.1,0-0.2c0-4,0-7.9,0-11.9C40.9,10.8,41.9,9,43.6,8c1.2-0.7,2.6-0.9,4-0.7c0.5,0.1,1.1,0.1,1.6,0.3
			c1,0.2,1.7,1.2,1.5,2.2c-0.2,1-1.1,1.6-2.1,1.4c0,0,0,0-0.1,0c-0.6-0.1-1.2-0.3-1.9-0.3c-0.9-0.1-1.7,0.5-1.8,1.3
			c0,0.1,0,0.2,0,0.4C44.8,14.5,44.9,16.5,44.9,18.6z"/>
		<path class="st0" d="M100.5,17.3c0,1.8-1.5,3.3-3.3,3.3c-1.8,0-3.3-1.5-3.3-3.3s1.5-3.3,3.3-3.3C99.1,14,100.5,15.5,100.5,17.3z"
			/>
	</g>
</g>
</svg>
