<svg xmlns="http://www.w3.org/2000/svg" viewBox="0 0 312.11 92.67"><defs><style>.cls-1{fill:#fff;}</style></defs><title>Asset 3</title><g id="Layer_2" data-name="Layer 2"><g id="Layer_1-2" data-name="Layer 1"><path class="cls-1" d="M231.91,90.84V60.6c0-9.31-1.22-15.29-10-15.29-5,0-10.52,4-12.08,6.32V90.84H195.35V34.23h14.51V40c2.77-2.66,9.31-7.42,17.95-7.42,12.07,0,18.61,6.2,18.61,20.38V90.84Z"/><path class="cls-1" d="M297.6,0h14.51V85.64a48,48,0,0,1-24.93,6.87c-16,0-31.24-10.08-31.24-29.25,0-18.06,12.3-30.69,29.69-30.69a22.21,22.21,0,0,1,12,3.32Zm0,49c-2.55-2.66-7.31-4.32-11.52-4.32-9.08,0-14.84,7.64-14.84,18.61,0,10.52,7.42,17.39,16,17.39,3.1,0,7.2-.44,10.41-2.44Z"/><polygon class="cls-1" points="123.94 34.23 106.99 34.23 94.19 51.26 81.39 34.23 64.45 34.23 85.72 62.54 64.45 90.84 81.39 90.84 94.19 73.81 106.99 90.84 123.94 90.84 102.67 62.54 123.94 34.23"/><path class="cls-1" d="M55,45.5c-5.92-7.91-14.54-13.1-24.86-13.1a30.13,30.13,0,0,0,0,60.26C40.45,92.67,49,87.48,55,79.57l12.8-17ZM30.13,79A16.47,16.47,0,1,1,46.6,62.54,16.47,16.47,0,0,1,30.13,79Z"/><path class="cls-1" d="M182.38,85.52c-3,2.55-11.63,7-24.26,7-18.72,0-31.35-11.63-31.35-29.8,0-17.28,12.63-30.13,30.24-30.13,18.39,0,27.47,14,27.47,29.91V68H141.39c1.55,10.53,11.08,13,19.94,13A28.14,28.14,0,0,0,176,77.07a13.88,13.88,0,0,0,2.17-1.63ZM170,57.16c-.11-7.2-5-13.29-12.85-13.29-8.31,0-14.07,5-15.73,13.29Z"/></g></g></svg>