<svg xmlns="http://www.w3.org/2000/svg" viewBox="0 0 119 127"><defs><style>.cls-1,.cls-2,.cls-3{fill:none;stroke-width:3px;}.cls-1,.cls-2{stroke:#83da45;}.cls-1,.cls-3{stroke-miterlimit:10;}.cls-2{stroke-linejoin:round;}.cls-3{stroke:#2dc58d;}</style></defs><title>Asset 125</title><g id="Layer_2" data-name="Layer 2"><g id="Layer_1-2" data-name="Layer 1"><path class="cls-1" d="M37.5,75.5a6,6,0,0,0,12,0c0-3.31-6-6-6-6s-6-2.69-6-6a6,6,0,0,1,12,0"/><line class="cls-1" x1="43.5" y1="57.5" x2="43.5" y2="51.5"/><line class="cls-1" x1="43.5" y1="81.5" x2="43.5" y2="87.5"/><line class="cls-1" x1="55.5" y1="69.5" x2="59.5" y2="69.5"/><line class="cls-1" x1="27.5" y1="69.5" x2="31.5" y2="69.5"/><path class="cls-1" d="M51.5,125.5h-38a12,12,0,0,1-12-12v-32c0-44,24-44,32-52"/><path class="cls-1" d="M53.5,29.5c8,8,32,6,32,50"/><rect class="cls-1" x="31.5" y="21.5" width="24" height="8" rx="2" ry="2"/><polygon class="cls-2" points="59.5 5.5 51.5 1.5 43.5 5.5 35.5 1.5 27.5 5.5 35.5 21.5 51.5 21.5 59.5 5.5"/><path class="cls-1" d="M63.5,17.5a8,8,0,0,1-8,8"/><path class="cls-1" d="M23.5,17.5a8,8,0,0,0,8,8"/><circle class="cls-1" cx="43.5" cy="69.5" r="24"/><rect class="cls-3" x="57.5" y="117.5" width="20" height="8" rx="2" ry="2"/><rect class="cls-3" x="57.5" y="109.5" width="20" height="8" rx="2" ry="2"/><rect class="cls-3" x="57.5" y="101.5" width="20" height="8" rx="2" ry="2"/><rect class="cls-3" x="77.5" y="117.5" width="20" height="8" rx="2" ry="2"/><rect class="cls-3" x="77.5" y="109.5" width="20" height="8" rx="2" ry="2"/><rect class="cls-3" x="77.5" y="101.5" width="20" height="8" rx="2" ry="2"/><rect class="cls-3" x="77.5" y="93.5" width="20" height="8" rx="2" ry="2"/><rect class="cls-3" x="77.5" y="85.5" width="20" height="8" rx="2" ry="2"/><rect class="cls-3" x="97.5" y="117.5" width="20" height="8" rx="2" ry="2"/><rect class="cls-3" x="97.5" y="109.5" width="20" height="8" rx="2" ry="2"/><rect class="cls-3" x="97.5" y="101.5" width="20" height="8" rx="2" ry="2"/><rect class="cls-3" x="97.5" y="93.5" width="20" height="8" rx="2" ry="2"/><rect class="cls-3" x="97.5" y="85.5" width="20" height="8" rx="2" ry="2"/><rect class="cls-3" x="97.5" y="77.5" width="20" height="8" rx="2" ry="2"/><rect class="cls-3" x="97.5" y="69.5" width="20" height="8" rx="2" ry="2"/><rect class="cls-3" x="97.5" y="49.5" width="20" height="8" rx="2" ry="2"/><line class="cls-3" x1="103.5" y1="43.5" x2="103.5" y2="27.5"/><line class="cls-3" x1="111.5" y1="31.5" x2="111.5" y2="15.5"/><line class="cls-3" x1="103.5" y1="23.5" x2="103.5" y2="19.5"/><line class="cls-3" x1="111.5" y1="35.5" x2="111.5" y2="39.5"/></g></g></svg>