<?xml version="1.0" encoding="utf-8"?>
<!-- Generator: Adobe Illustrator 21.0.0, SVG Export Plug-In . SVG Version: 6.00 Build 0)  -->
<svg version="1.1" id="Layer_1" xmlns="http://www.w3.org/2000/svg" xmlns:xlink="http://www.w3.org/1999/xlink" x="0px" y="0px"
	 viewBox="0 0 69.9 74.6" style="enable-background:new 0 0 69.9 74.6;" xml:space="preserve">
<style type="text/css">
	.st0{fill:#FFFFFF;stroke:#02BAB1;stroke-width:2;stroke-miterlimit:10;}
	.st1{fill:none;stroke:#02BAB1;stroke-width:2;stroke-miterlimit:10;}
	.st2{fill:#02BAB1;}
</style>
<title>Asset 186</title>
<g id="Layer_2">
	<g id="Menu">
		<path class="st0" d="M6.8,73.6H63c3.2,0,5.8-2.6,5.8-5.8V17.4H12.7v50.3C12.7,71,10.1,73.6,6.8,73.6C3.6,73.6,1,71,1,67.7V17.4
			h8.2"/>
		<path class="st1" d="M51.3,26.8V11.5c-0.2-5.8-5-10.4-10.9-10.2c-5.6,0.2-10,4.6-10.2,10.2v15.2"/>
		<path class="st1" d="M42,17.4v-5.9C41.8,5.7,37,1.2,31.1,1.3c-5.6,0.2-10,4.6-10.2,10.2v5.9"/>
		<line class="st1" x1="47.8" y1="26.8" x2="54.8" y2="26.8"/>
		<line class="st1" x1="26.8" y1="26.8" x2="33.8" y2="26.8"/>
		<path class="st1" d="M12.7,46.8c3.5,0,3.5,4,7,4s3.5-4,7-4s3.5,4,7,4s3.5-4,7-4s3.5,4,7,4s3.5-4,7-4s3.5,4,7,4c3.5,0,3.5-4,7-4"/>
		<path class="st1" d="M6.8,23.2"/>
		<path class="st1" d="M12.7,17.4c0,3.2-2.6,5.9-5.9,5.9S1,20.6,1,17.4"/>
		<line class="st1" x1="6.8" y1="29.1" x2="6.8" y2="67.7"/>
	</g>
</g>
<g>
	<polygon class="st2" points="60.8,58.9 58.5,58.9 56.8,61.2 55,58.9 52.7,58.9 55.6,62.8 52.7,66.6 55,66.6 56.8,64.3 58.5,66.6 
		60.8,66.6 57.9,62.8 	"/>
	<path class="st2" d="M51.4,60.5c-0.8-1.1-2-1.8-3.4-1.8c-2.3,0-4.1,1.8-4.1,4.1s1.8,4.1,4.1,4.1c1.4,0,2.6-0.7,3.4-1.8l1.7-2.3
		L51.4,60.5z M48,65c-1.2,0-2.2-1-2.2-2.2s1-2.2,2.2-2.2s2.2,1,2.2,2.2C50.3,64,49.3,65,48,65z"/>
</g>
</svg>
