<svg xmlns="http://www.w3.org/2000/svg" viewBox="0 0 16 16"><defs><style>.cls-1{fill:#dff5a6;}.cls-2{fill:#67d6d0;}</style></defs><title>quote</title><g id="Layer_2" data-name="Layer 2"><g id="Main"><circle class="cls-1" cx="8" cy="8" r="8"/><path class="cls-2" d="M6.08,9.8a3.25,3.25,0,0,0,2,.86c.62,0,1.18-.32,1.18-1C9.28,8.31,5.42,8.44,5.42,6a2.37,2.37,0,0,1,2.15-2.3V2.62h1V3.67a3.29,3.29,0,0,1,2,.83L9.92,5.7A3,3,0,0,0,8.13,5c-.69,0-1.22.4-1.22,1,0,1.36,3.85,1.12,3.85,3.68A2.36,2.36,0,0,1,8.55,12V13h-1V12a3.84,3.84,0,0,1-2.29-1.07Z"/></g></g></svg>