<svg xmlns="http://www.w3.org/2000/svg" xmlns:xlink="http://www.w3.org/1999/xlink" viewBox="0 0 622.63 417.84"><defs><style>.cls-1{opacity:0.3;}.cls-2,.cls-6,.cls-7,.cls-8{fill:none;}.cls-2,.cls-8{stroke-linejoin:round;stroke-dasharray:12;}.cls-2,.cls-3,.cls-4,.cls-5{stroke-width:7px;}.cls-2{stroke:url(#New_Gradient_Swatch_1);}.cls-3,.cls-4,.cls-5{fill:#fff;}.cls-3{stroke:#999;}.cls-3,.cls-4,.cls-5,.cls-6,.cls-7{stroke-miterlimit:10;}.cls-4{stroke:#666;}.cls-5{stroke:#ccc;}.cls-6{stroke:#02bab1;}.cls-6,.cls-7{stroke-width:12px;}.cls-7{stroke:#aee521;}.cls-8{stroke:#b3b3b3;stroke-width:4px;}</style><linearGradient id="New_Gradient_Swatch_1" x1="27.44" y1="210.19" x2="596.36" y2="210.19" gradientUnits="userSpaceOnUse"><stop offset="0" stop-color="#00a99d"/><stop offset="1" stop-color="#aee521"/></linearGradient></defs><title>Asset 158</title><g id="Layer_2" data-name="Layer 2"><g id="Layer_1-2" data-name="Layer 1"><g class="cls-1"><path class="cls-2" d="M30.94,352.42c0-155.17,125.79-281,281-281s281,125.79,281,281"/><polygon class="cls-3" points="369.9 104.5 369.9 37.53 311.9 4.04 253.9 37.53 253.9 104.5 311.9 137.99 369.9 104.5"/><polyline class="cls-3" points="253.9 36.04 311.9 69.53 369.9 36.04"/><line class="cls-3" x1="283.9" y1="53.53" x2="341.9" y2="20.04"/><line class="cls-3" x1="309.9" y1="70.87" x2="309.9" y2="138.87"/><polygon class="cls-4" points="571.37 251.8 618.73 204.44 601.39 139.75 536.7 122.42 489.35 169.78 506.68 234.47 571.37 251.8"/><polyline class="cls-4" points="537.75 121.37 555.09 186.06 619.78 203.39"/><line class="cls-4" x1="546.6" y1="154.95" x2="611.29" y2="172.28"/><line class="cls-4" x1="552.72" y1="185.59" x2="504.64" y2="233.68"/><polygon class="cls-5" points="133.28 166.95 85.93 119.59 21.24 136.92 3.9 201.61 51.26 248.97 115.95 231.64 133.28 166.95"/><polyline class="cls-5" points="2.85 200.56 67.54 183.23 84.88 118.54"/><line class="cls-5" x1="36.43" y1="191.71" x2="53.76" y2="127.02"/><line class="cls-5" x1="67.08" y1="185.59" x2="115.16" y2="233.68"/><line class="cls-6" x1="9.76" y1="413.6" x2="52.12" y2="371.24"/><line class="cls-6" x1="9.76" y1="371.24" x2="52.12" y2="413.6"/><line class="cls-7" x1="571.68" y1="413.6" x2="614.04" y2="371.24"/><line class="cls-7" x1="571.68" y1="371.24" x2="614.04" y2="413.6"/><line class="cls-8" x1="248.71" y1="400.94" x2="377.09" y2="400.94"/></g></g></g></svg>