<svg xmlns="http://www.w3.org/2000/svg" viewBox="0 0 168.37 91"><defs><style>.cls-1,.cls-2,.cls-5,.cls-6{fill:none;}.cls-1,.cls-4,.cls-6{stroke:#58d069;}.cls-1,.cls-2,.cls-4,.cls-5,.cls-6{stroke-linejoin:round;stroke-width:3px;}.cls-2{stroke:#2dc58d;}.cls-3{font-size:26px;fill:#02bab1;font-family:SemplicitaPro-Semibold, SemplicitaPro;font-weight:700;}.cls-4{fill:#fff;}.cls-5{stroke:#aee521;}.cls-6{stroke-linecap:round;}</style></defs><title>Asset 141</title><g id="Layer_2" data-name="Layer 2"><g id="Layer_1-2" data-name="Layer 1"><rect class="cls-1" x="104.97" y="21.04" width="61.9" height="15.48"/><rect class="cls-2" x="104.97" y="21.04" width="61.9" height="58.46"/><text class="cls-3" transform="translate(120.36 68.75)">27</text><circle class="cls-4" cx="45.5" cy="45.5" r="44"/><circle class="cls-5" cx="45.5" cy="45.5" r="36"/><line class="cls-1" x1="59.5" y1="21.25" x2="59.5" y2="21.25"/><line class="cls-1" x1="31.5" y1="69.75" x2="31.5" y2="69.75"/><line class="cls-1" x1="69.75" y1="31.5" x2="69.75" y2="31.5"/><line class="cls-1" x1="21.25" y1="59.5" x2="21.25" y2="59.5"/><line class="cls-1" x1="73.5" y1="45.5" x2="73.5" y2="45.5"/><line class="cls-1" x1="17.5" y1="45.5" x2="17.5" y2="45.5"/><line class="cls-1" x1="69.75" y1="59.5" x2="69.75" y2="59.5"/><line class="cls-1" x1="21.25" y1="31.5" x2="21.25" y2="31.5"/><line class="cls-1" x1="59.5" y1="69.75" x2="59.5" y2="69.75"/><line class="cls-1" x1="31.5" y1="21.25" x2="31.5" y2="21.25"/><line class="cls-1" x1="45.5" y1="73.5" x2="45.5" y2="73.5"/><line class="cls-1" x1="45.5" y1="17.5" x2="45.5" y2="17.5"/><line class="cls-6" x1="45.5" y1="45.5" x2="34.5" y2="36.92"/><line class="cls-6" x1="68.55" y1="45.5" x2="45.5" y2="45.5"/></g></g></svg>