<?xml version="1.0" encoding="utf-8"?>
<!-- Generator: Adobe Illustrator 21.0.0, SVG Export Plug-In . SVG Version: 6.00 Build 0)  -->
<svg version="1.1" id="Layer_1" xmlns="http://www.w3.org/2000/svg" xmlns:xlink="http://www.w3.org/1999/xlink" x="0px" y="0px"
	 viewBox="0 0 74.8 67.4" style="enable-background:new 0 0 74.8 67.4;" xml:space="preserve">
<style type="text/css">
	.st0{fill:#FFFFFF;stroke:#02BAB1;stroke-width:2;stroke-linecap:round;stroke-linejoin:round;}
	.st1{fill:none;stroke:#02BAB1;stroke-width:2;stroke-linecap:round;stroke-linejoin:round;}
	.st2{fill:none;stroke:#02BAB1;stroke-width:2;stroke-linejoin:round;}
	.st3{fill:#02BAB1;}
</style>
<title>Asset 183</title>
<g id="Menu">
	<polyline class="st0" points="1,16.2 17.4,1 73.8,1.1 73.8,51.2 57.3,66.4 	"/>
	<rect x="1" y="16.2" class="st0" width="56.3" height="50.2"/>
	<line class="st1" x1="57.3" y1="16.2" x2="73.8" y2="1.1"/>
	<line class="st1" x1="27.3" y1="16" x2="43.7" y2="1"/>
	<line class="st2" x1="23.2" y1="40.3" x2="28.3" y2="45.3"/>
	<path class="st2" d="M33.8,32.8c3.6,6.4,1.2,14.5-5.2,18.1s-14.5,1.2-18.1-5.2s-1.2-14.5,5.2-18.1c4-2.2,8.9-2.2,12.9,0"/>
	<ellipse transform="matrix(0.7071 -0.7071 0.7071 0.7071 -21.1843 27.0198)" class="st2" cx="22" cy="39.1" rx="1.8" ry="1.8"/>
	<polyline class="st2" points="27.4,24 28.6,27.6 25.1,28.8 	"/>
	<g>
		<polygon class="st3" points="52.3,53.6 50,53.6 48.3,56 46.5,53.6 44.2,53.6 47.1,57.5 44.2,61.4 46.5,61.4 48.3,59 50,61.4 
			52.3,61.4 49.4,57.5 		"/>
		<path class="st3" d="M42.9,55.2c-0.8-1.1-2-1.8-3.4-1.8c-2.3,0-4.1,1.8-4.1,4.1s1.8,4.1,4.1,4.1c1.4,0,2.6-0.7,3.4-1.8l1.7-2.3
			L42.9,55.2z M39.5,59.8c-1.2,0-2.2-1-2.2-2.2s1-2.2,2.2-2.2s2.2,1,2.2,2.2C41.8,58.7,40.8,59.8,39.5,59.8z"/>
	</g>
</g>
</svg>
