<svg xmlns="http://www.w3.org/2000/svg" viewBox="0 0 324.64 224.22"><defs><style>.cls-1{opacity:0.4;}.cls-2{fill:#58d069;stroke:#2dc58d;stroke-miterlimit:10;stroke-width:7px;}</style></defs><title>Asset 163</title><g id="Layer_2" data-name="Layer 2"><g id="Layer_1-2" data-name="Layer 1"><g class="cls-1"><line class="cls-2" x1="255.64" y1="154.41" x2="255.63" y2="194.41"/><line class="cls-2" x1="155.91" y1="184.22" x2="155.9" y2="224.22"/><line class="cls-2" x1="64" y1="156.91" x2="63.99" y2="196.91"/><path class="cls-2" d="M252.95,4.38l-37.19,29c-17.27,13.54-28.41,32.7-28,55.54a66.7,66.7,0,0,0,133.37-2.39c-.41-22.84-12.23-41.7-30-54.5Z"/><path class="cls-2" d="M61.6,23.22,28.46,49.06C13.07,61.13,3.14,78.2,3.51,98.55a59.43,59.43,0,0,0,118.84-2.13c-.37-20.35-10.9-37.16-26.71-48.56Z"/><path class="cls-2" d="M153.58,54.36l-32.19,25.1c-14.95,11.72-24.59,28.3-24.24,48.07a57.73,57.73,0,0,0,115.44-2.07c-.35-19.77-10.59-36.09-25.94-47.17Z"/></g></g></g></svg>