<?xml version="1.0" encoding="utf-8"?>
<!-- Generator: Adobe Illustrator 21.0.0, SVG Export Plug-In . SVG Version: 6.00 Build 0)  -->
<svg version="1.1" id="Layer_1" xmlns="http://www.w3.org/2000/svg" xmlns:xlink="http://www.w3.org/1999/xlink" x="0px" y="0px"
	 viewBox="0 0 74.8 67.4" style="enable-background:new 0 0 74.8 67.4;" xml:space="preserve">
<style type="text/css">
	.st0{fill:#FFFFFF;stroke:#02BAB1;stroke-width:2;stroke-linecap:round;stroke-linejoin:round;}
	.st1{fill:none;stroke:#02BAB1;stroke-width:2;stroke-linecap:round;stroke-linejoin:round;}
	.st2{fill:#02BAB1;}
	.st3{fill:none;stroke:#02BAB1;stroke-width:2;stroke-linejoin:round;}
</style>
<title>Asset 184</title>
<g id="Layer_2">
	<g id="Menu">
		<polyline class="st0" points="73.8,16.2 57.4,1 1,1.1 1,51.2 17.5,66.4 		"/>
		<rect x="17.5" y="16.2" class="st0" width="56.3" height="50.2"/>
		<line class="st1" x1="17.5" y1="16.2" x2="1" y2="1.1"/>
		<line class="st1" x1="47.5" y1="16" x2="31.1" y2="1"/>
		<path class="st2" d="M37.6,49.4c-0.7,0-1.3-0.6-1.3-1.3s0.6-1.3,1.3-1.3s1.3,0.6,1.3,1.3C38.9,48.9,38.3,49.4,37.6,49.4z"/>
		<polygon class="st2" points="36.9,45.6 36.3,32.7 38.9,32.7 38.4,45.6 		"/>
		<polyline class="st3" points="36.5,27.6 36.5,25.2 34.7,25.2 34.7,22.2 40.6,22.2 40.6,25.2 38.8,25.2 38.8,27.6 		"/>
		<circle class="st3" cx="37.6" cy="41" r="13.3"/>
		<g>
			<polygon class="st2" points="68.8,53.6 66.5,53.6 64.8,56 63,53.6 60.7,53.6 63.6,57.5 60.7,61.4 63,61.4 64.8,59 66.5,61.4 
				68.8,61.4 65.9,57.5 			"/>
			<path class="st2" d="M59.4,55.2c-0.8-1.1-2-1.8-3.4-1.8c-2.3,0-4.1,1.8-4.1,4.1s1.8,4.1,4.1,4.1c1.4,0,2.6-0.7,3.4-1.8l1.7-2.3
				L59.4,55.2z M56,59.8c-1.2,0-2.2-1-2.2-2.2s1-2.2,2.2-2.2s2.2,1,2.2,2.2C58.3,58.7,57.3,59.8,56,59.8z"/>
		</g>
	</g>
</g>
</svg>
