<svg xmlns="http://www.w3.org/2000/svg" viewBox="0 0 171.89 109.94"><defs><style>.cls-1,.cls-2,.cls-5{fill:none;}.cls-1{stroke:#02bab1;}.cls-1,.cls-2,.cls-4{stroke-linejoin:round;}.cls-1,.cls-2,.cls-3,.cls-4,.cls-5{stroke-width:3px;}.cls-2{stroke:#2dc58d;}.cls-3,.cls-4{fill:#fff;}.cls-3,.cls-4,.cls-5{stroke:#83da45;}.cls-3,.cls-5{stroke-miterlimit:10;}</style></defs><title>Asset 124</title><g id="Layer_2" data-name="Layer 2"><g id="Layer_1-2" data-name="Layer 1"><circle class="cls-1" cx="34.28" cy="75.66" r="32.78"/><path class="cls-2" d="M34.28,97.61A22,22,0,0,1,12.33,75.66"/><circle class="cls-2" cx="137.62" cy="75.66" r="32.78"/><path class="cls-2" d="M137.62,53.71a22,22,0,0,1,21.95,21.95"/><path class="cls-3" d="M67.06,75.66,73,35.83a4.88,4.88,0,0,0-4.88-4.88H59.77L34.28,75.66h97"/><path class="cls-4" d="M108.43,1.5H98.72l38.89,74.16H111S140.82,80,98.53,1.5"/><line class="cls-5" x1="68.72" y1="64.42" x2="56.61" y2="64.42"/><line class="cls-5" x1="69.65" y1="58.16" x2="61.99" y2="58.16"/><line class="cls-5" x1="70.58" y1="51.91" x2="65.82" y2="51.91"/></g></g></svg>